<?xml version="1.0" standalone="no"?>
<!DOCTYPE svg PUBLIC "-//W3C//DTD SVG 20010904//EN"
 "http://www.w3.org/TR/2001/REC-SVG-20010904/DTD/svg10.dtd">
<svg version="1.0" xmlns="http://www.w3.org/2000/svg"
 width="940.000000pt" height="946.000000pt" viewBox="0 0 940.000000 946.000000"
 preserveAspectRatio="xMidYMid meet">

<g transform="translate(0.000000,946.000000) scale(0.100000,-0.100000)"
fill="#000000" stroke="none">
<path d="M4305 9329 c-968 -88 -1833 -445 -2585 -1067 -151 -125 -470 -446
-593 -597 -603 -742 -952 -1586 -1042 -2520 -22 -227 -22 -643 0 -870 91 -946
450 -1804 1063 -2545 123 -148 424 -449 572 -572 730 -604 1571 -959 2515
-1060 190 -20 794 -17 975 5 354 44 645 108 955 212 1390 462 2486 1567 2939
2963 299 918 300 1933 4 2852 -322 999 -967 1853 -1843 2437 -615 410 -1286
656 -2045 749 -158 19 -754 28 -915 13z m840 -79 c569 -63 1057 -201 1549
-440 812 -393 1515 -1053 1967 -1845 178 -311 335 -689 430 -1034 264 -958
211 -1971 -152 -2891 -579 -1471 -1887 -2543 -3439 -2820 -310 -55 -587 -75
-915 -67 -476 12 -883 83 -1330 232 -775 258 -1445 705 -1998 1335 -567 646
-944 1465 -1072 2330 -59 400 -59 920 0 1320 105 710 384 1405 796 1982 435
608 1015 1106 1676 1437 543 271 1114 425 1758 475 96 7 631 -3 730 -14z"/>
<path d="M5663 8929 c-30 -15 -48 -33 -62 -63 -43 -88 -18 -153 109 -281 106
-107 136 -162 125 -233 -21 -143 -255 -181 -362 -59 -43 49 -76 141 -69 190 9
54 -11 47 -38 -15 -45 -101 -46 -93 36 -172 99 -95 179 -138 273 -144 57 -3
81 0 116 15 54 24 115 75 135 114 19 37 18 132 -2 200 -14 48 -27 66 -119 154
-57 55 -108 110 -114 122 -21 41 -13 81 23 120 29 32 39 37 74 36 55 -2 137
-39 167 -75 13 -16 29 -48 35 -71 19 -72 21 -75 36 -40 7 17 16 50 20 72 l7
41 -94 44 c-147 70 -223 81 -296 45z"/>
<path d="M3419 8891 c-195 -63 -273 -140 -249 -247 22 -98 116 -144 294 -144
86 0 140 -14 184 -46 62 -48 79 -121 43 -192 -26 -50 -99 -116 -146 -132 -76
-25 -192 13 -256 83 -37 39 -39 40 -38 17 1 -48 35 -125 60 -137 30 -16 166
-17 244 -2 139 25 229 111 250 237 13 77 -2 120 -59 178 -83 83 -98 88 -273
94 -174 6 -197 15 -223 88 -21 61 1 101 76 138 80 39 136 38 203 -3 29 -18 54
-33 56 -33 7 0 -25 83 -41 107 -18 28 -18 28 -125 -6z"/>
<path d="M4545 8818 l-75 -73 73 -79 73 -79 76 69 c42 38 77 73 77 78 1 11
-129 156 -140 156 -5 0 -43 -33 -84 -72z"/>
<path d="M6342 8693 c-7 -27 -13 -55 -15 -63 -3 -23 37 -23 58 0 10 11 30 20
45 20 37 0 165 -65 190 -97 21 -26 27 -82 11 -98 -5 -6 -66 -116 -136 -245
-69 -129 -136 -245 -148 -258 -11 -12 -34 -26 -51 -30 -37 -10 -47 -32 -14
-32 38 0 93 -19 131 -44 19 -13 38 -22 41 -18 3 3 6 28 6 56 0 60 15 94 155
351 123 227 139 249 174 240 38 -9 146 -82 181 -122 26 -29 29 -39 24 -72 -10
-62 12 -58 46 8 16 33 30 65 30 71 0 5 -18 19 -39 29 -21 11 -83 48 -136 82
-54 33 -143 85 -199 114 -96 51 -321 155 -335 155 -3 0 -12 -21 -19 -47z"/>
<path d="M2441 8440 c-218 -165 -236 -192 -236 -350 0 -89 3 -111 22 -145 31
-58 86 -119 165 -182 73 -58 128 -131 128 -170 0 -13 -12 -31 -30 -44 -34 -26
-31 -39 12 -39 22 0 41 11 69 39 50 50 51 82 3 163 -19 34 -33 67 -30 74 7 18
81 64 104 64 10 0 23 -5 29 -11 19 -19 34 0 27 35 -5 28 -1 37 27 60 56 47 78
35 120 -64 20 -47 40 -85 45 -84 33 1 134 30 134 37 0 4 -18 29 -39 55 -81 97
-252 367 -322 507 -53 109 -76 145 -90 145 -10 0 -72 -41 -138 -90z m188 -200
c66 -99 123 -190 127 -202 5 -18 -1 -30 -36 -60 -48 -43 -67 -46 -103 -18 -14
11 -28 20 -31 20 -3 0 -5 -22 -4 -50 2 -42 -2 -54 -27 -80 -16 -16 -38 -30
-49 -30 -35 0 -143 121 -183 205 -33 71 -35 81 -31 150 4 59 11 83 32 115 33
50 134 130 164 130 18 0 45 -35 141 -180z"/>
<path d="M7337 8105 c-37 -89 -246 -353 -386 -488 -39 -38 -71 -72 -71 -76 0
-14 34 -38 62 -45 16 -4 29 -16 36 -34 14 -41 59 -90 106 -115 63 -33 173 -31
246 5 73 36 188 134 235 200 93 129 135 150 206 103 23 -14 43 -24 46 -21 11
11 -8 55 -35 84 -72 77 -215 34 -296 -88 -46 -69 -169 -188 -217 -210 -54 -24
-140 -26 -174 -4 -32 21 -65 75 -65 106 0 28 57 99 254 318 194 213 199 220
184 237 -15 18 -94 73 -105 73 -4 0 -16 -20 -26 -45z"/>
<path d="M4536 8079 c-24 -19 -27 -19 -48 -5 -33 23 -72 20 -106 -9 -26 -22
-31 -23 -42 -10 -19 23 -80 19 -106 -6 -21 -19 -27 -20 -53 -9 -36 15 -74 7
-101 -20 -16 -16 -25 -18 -40 -10 -34 18 -70 11 -100 -19 -19 -18 -33 -25 -42
-20 -29 19 -79 10 -107 -20 -20 -21 -32 -27 -42 -20 -28 18 -70 10 -100 -20
-24 -25 -34 -28 -66 -24 -29 4 -45 0 -65 -17 -16 -12 -28 -27 -28 -34 0 -10
-12 -12 -45 -8 -38 4 -50 1 -70 -18 -14 -13 -25 -28 -25 -35 0 -6 -15 -9 -40
-7 -45 5 -85 -15 -95 -47 -5 -16 -14 -20 -45 -18 -42 1 -90 -32 -90 -63 0 -12
-8 -15 -35 -12 -43 5 -82 -18 -91 -53 -5 -21 -12 -25 -45 -25 -43 0 -74 -24
-84 -63 -5 -19 -11 -23 -35 -19 -23 3 -36 -3 -60 -26 -16 -17 -30 -39 -30 -49
0 -14 -8 -18 -37 -19 -40 -1 -83 -39 -83 -75 0 -14 -7 -19 -29 -19 -41 0 -81
-35 -81 -71 0 -26 -3 -29 -30 -29 -38 0 -80 -39 -80 -74 0 -21 -6 -26 -35 -32
-41 -7 -75 -45 -75 -83 0 -22 -5 -27 -27 -29 -36 -2 -73 -45 -73 -83 0 -22 -5
-29 -19 -29 -36 0 -75 -44 -75 -84 0 -30 -3 -36 -21 -36 -33 0 -69 -45 -69
-85 0 -27 -5 -35 -23 -40 -40 -10 -63 -41 -63 -85 0 -29 -4 -40 -15 -40 -31 0
-65 -47 -65 -90 0 -26 -4 -40 -13 -40 -28 0 -57 -45 -57 -87 0 -33 -4 -43 -20
-48 -33 -10 -53 -50 -48 -95 2 -25 -1 -40 -7 -40 -14 0 -50 -39 -58 -62 -3 -9
-2 -31 3 -47 7 -24 5 -31 -5 -31 -27 0 -57 -52 -53 -94 3 -32 -1 -44 -24 -67
-29 -29 -39 -84 -18 -105 7 -7 0 -17 -20 -32 -25 -19 -30 -29 -30 -67 0 -24 4
-46 9 -49 5 -4 -4 -19 -20 -35 -31 -31 -37 -67 -18 -102 9 -17 6 -25 -15 -44
-28 -26 -34 -71 -15 -107 9 -16 7 -24 -9 -41 -30 -33 -35 -63 -18 -99 15 -30
15 -33 -4 -53 -24 -25 -27 -81 -5 -112 13 -18 12 -22 -5 -38 -24 -21 -27 -82
-6 -110 12 -16 11 -23 -5 -49 -25 -40 -24 -67 2 -100 20 -25 20 -28 5 -45 -22
-24 -20 -83 4 -114 17 -22 18 -26 5 -37 -22 -18 -19 -86 5 -110 18 -18 18 -22
5 -54 -17 -39 -7 -81 23 -104 14 -10 14 -16 4 -32 -19 -31 -14 -76 12 -107 17
-20 22 -34 15 -44 -17 -28 -10 -79 15 -104 20 -20 24 -31 19 -59 -8 -50 4 -85
32 -98 19 -9 22 -15 15 -29 -21 -37 -2 -104 31 -114 15 -5 17 -14 12 -53 -5
-42 -2 -50 22 -75 15 -15 32 -27 36 -27 5 0 4 -11 -1 -25 -13 -34 11 -92 42
-104 19 -7 22 -14 19 -51 -2 -33 2 -47 20 -66 12 -13 28 -24 36 -24 9 0 13
-14 13 -41 0 -51 12 -73 48 -88 24 -10 28 -17 24 -41 -5 -36 19 -76 54 -92 17
-8 24 -19 24 -40 0 -42 17 -68 55 -84 25 -10 32 -18 28 -33 -8 -31 23 -78 61
-92 19 -7 33 -16 30 -21 -9 -15 17 -78 36 -88 10 -6 28 -10 39 -10 16 0 21 -6
21 -25 0 -52 39 -95 85 -95 8 0 15 -9 15 -20 0 -49 41 -90 90 -90 15 0 20 -7
20 -28 0 -31 31 -71 58 -74 9 0 24 -1 32 -2 8 -1 16 -10 18 -21 6 -39 26 -65
58 -75 19 -6 38 -9 43 -6 5 3 11 -7 14 -23 9 -41 44 -71 84 -71 27 0 33 -4 33
-20 0 -34 44 -70 85 -70 24 0 35 -5 35 -14 0 -8 11 -27 24 -43 19 -22 32 -28
65 -28 31 0 41 -3 41 -16 0 -30 48 -64 90 -63 33 1 39 -2 44 -22 9 -35 50 -58
90 -51 28 4 35 2 44 -18 17 -38 56 -58 96 -51 29 6 35 3 41 -14 11 -34 50 -53
94 -46 33 5 39 3 49 -19 13 -28 48 -40 97 -32 27 4 35 2 40 -12 8 -28 49 -44
94 -38 33 4 43 1 60 -19 26 -30 59 -38 95 -24 25 9 31 7 52 -15 25 -27 90 -35
112 -13 9 9 16 5 32 -15 23 -29 73 -37 110 -17 15 8 24 6 40 -10 28 -28 63
-34 99 -16 29 15 32 15 51 -4 24 -24 91 -27 110 -5 11 13 15 12 37 -5 31 -24
90 -26 115 -3 16 15 20 15 36 0 32 -29 71 -32 103 -8 27 20 31 21 51 6 31 -21
80 -19 111 5 22 17 26 18 37 5 18 -21 83 -19 111 4 22 17 26 18 52 4 34 -17
78 -10 102 17 13 15 22 17 36 10 34 -18 84 -12 109 15 17 19 27 22 41 15 32
-18 79 -11 104 14 22 22 29 24 55 14 36 -12 85 4 100 33 8 14 18 16 44 12 49
-8 85 4 98 31 9 21 16 24 44 19 48 -8 83 4 96 32 10 21 15 24 52 19 32 -5 47
-1 69 16 15 12 27 28 27 37 0 11 7 13 31 8 41 -9 85 11 101 45 10 25 16 27 45
23 40 -7 80 17 89 53 5 21 11 24 30 20 38 -10 93 18 100 51 5 26 10 28 46 28
31 0 45 6 64 28 13 16 24 35 24 43 0 9 11 14 35 14 41 0 85 36 85 70 0 16 6
20 35 20 43 0 85 37 85 74 0 18 4 24 14 20 7 -3 30 1 49 10 28 11 38 23 48 55
7 22 15 38 19 36 4 -3 22 0 40 6 32 12 68 69 55 89 -4 6 7 10 23 10 40 0 82
41 82 80 0 25 4 30 24 30 37 0 76 43 76 85 0 28 4 35 19 35 11 0 27 3 36 6 19
8 45 55 45 83 0 14 9 23 25 27 35 9 65 50 65 90 0 26 4 34 18 34 30 0 62 42
62 82 0 28 5 38 20 43 36 11 60 46 60 86 0 31 5 40 27 51 36 17 55 55 48 96
-4 23 -2 32 8 32 7 0 24 11 36 24 17 18 22 33 19 62 -3 33 1 42 25 57 36 22
52 63 39 99 -8 23 -7 28 9 33 33 11 52 51 47 99 -5 39 -3 45 18 55 27 12 39
48 31 97 -5 27 -2 36 13 44 27 15 44 71 29 102 -9 22 -8 29 15 51 27 27 34 73
16 106 -7 14 -4 24 15 41 27 25 33 75 15 109 -7 14 -5 23 10 36 27 25 34 69
16 105 -14 29 -14 32 5 51 21 21 26 78 8 110 -8 16 -7 25 4 37 25 29 28 66 8
105 -10 20 -16 37 -12 37 11 0 31 48 31 74 0 13 -8 34 -18 46 -18 22 -18 24 0
60 18 35 18 41 4 74 -8 20 -20 36 -26 36 -7 0 -5 9 4 22 23 32 20 87 -4 113
-20 21 -20 23 -4 52 20 35 14 73 -18 103 -17 16 -19 23 -10 32 22 22 14 86
-14 115 -18 18 -22 29 -15 36 21 21 13 83 -14 109 -22 22 -24 29 -15 55 13 35
0 76 -29 95 -16 10 -18 20 -14 63 5 47 3 53 -24 76 -25 21 -28 29 -25 70 3 41
1 48 -28 72 -27 23 -31 32 -25 56 8 36 -16 87 -44 96 -16 5 -21 17 -23 58 -3
46 -7 54 -35 72 -26 16 -32 25 -27 44 8 35 -14 78 -47 93 -25 11 -29 19 -29
51 0 40 -35 87 -65 87 -11 0 -15 11 -15 40 0 46 -34 90 -69 90 -14 0 -19 5
-15 15 15 38 -29 105 -68 105 -13 0 -18 8 -18 31 0 36 -47 89 -79 89 -17 0
-21 6 -21 29 0 39 -38 82 -73 84 -22 2 -27 7 -27 29 0 35 -38 78 -72 80 -21 2
-28 8 -33 35 -7 37 -47 73 -81 73 -17 0 -24 7 -29 30 -8 37 -49 70 -86 70 -24
0 -29 4 -29 24 0 32 -53 76 -91 76 -21 0 -29 5 -29 18 0 39 -67 83 -105 68
-10 -4 -15 1 -15 15 0 35 -44 69 -90 69 -33 0 -40 3 -40 19 0 29 -47 61 -90
61 -32 0 -39 4 -44 26 -8 30 -58 55 -98 47 -20 -4 -28 0 -33 16 -10 33 -50 54
-91 49 -31 -4 -37 0 -50 23 -16 31 -40 42 -87 38 -25 -2 -39 4 -65 30 -29 30
-38 33 -73 28 -34 -4 -43 -1 -68 24 -30 29 -72 38 -100 20 -10 -6 -21 0 -38
20 -20 23 -33 29 -63 29 -21 0 -42 -4 -45 -10 -10 -16 -23 -12 -30 9 -9 30
-60 47 -100 32 -31 -11 -36 -10 -59 14 -28 28 -70 33 -102 11 -18 -13 -22 -12
-43 10 -27 28 -91 33 -111 9 -11 -13 -16 -12 -42 10 -34 29 -57 31 -99 10 -27
-14 -31 -14 -45 0 -25 25 -63 29 -101 11 -31 -15 -36 -15 -56 -1 -28 19 -77
19 -105 0 -19 -14 -24 -14 -51 0 -40 20 -63 19 -95 -6z m99 -32 c21 -29 19
-53 -6 -78 -26 -26 -66 -22 -91 12 -15 20 -17 30 -9 52 18 48 77 55 106 14z
m140 8 c14 -13 25 -31 25 -40 0 -21 -44 -65 -65 -65 -21 0 -65 44 -65 65 0 21
44 65 65 65 9 0 27 -11 40 -25z m165 -18 c13 -24 13 -28 -6 -54 -28 -37 -70
-38 -97 -1 -17 23 -19 31 -9 53 23 50 84 51 112 2z m-457 5 c36 -31 5 -102
-45 -102 -44 0 -75 59 -50 96 22 33 60 35 95 6z m605 -16 c12 -23 11 -31 -3
-52 -20 -31 -37 -38 -70 -30 -35 9 -52 48 -37 81 23 50 86 51 110 1z m-758 4
c11 -11 20 -31 20 -45 0 -25 -31 -65 -51 -65 -15 0 -53 21 -61 34 -23 34 10
96 52 96 11 0 29 -9 40 -20z m888 4 c28 -19 29 -67 2 -94 -25 -25 -41 -25 -74
1 -31 25 -34 61 -6 89 24 24 48 25 78 4z m-1020 -48 c12 -23 11 -31 -3 -52
-20 -31 -37 -38 -70 -30 -35 9 -52 48 -37 81 23 50 86 51 110 1z m1174 17 c24
-21 23 -58 -2 -83 -39 -39 -100 -14 -100 41 0 53 61 79 102 42z m-1329 -31
c36 -31 5 -102 -45 -102 -48 0 -76 63 -45 102 23 30 55 30 90 0z m1487 -15
c13 -24 13 -28 -6 -54 -28 -38 -63 -41 -94 -8 -20 21 -22 30 -14 52 19 56 84
61 114 10z m-1640 -15 c14 -11 23 -29 23 -47 0 -30 -33 -65 -60 -65 -20 0 -63
45 -63 66 0 23 39 64 61 64 9 0 27 -8 39 -18z m699 -12 c19 0 43 7 52 16 17
15 20 15 43 0 32 -20 75 -21 104 0 21 15 25 15 41 0 23 -21 94 -21 111 -1 12
14 15 13 35 -5 23 -22 74 -27 106 -9 15 8 25 6 46 -10 28 -23 73 -27 102 -10
15 10 22 8 40 -10 23 -23 89 -29 109 -9 9 9 16 5 32 -15 17 -22 30 -27 65 -27
24 0 46 4 49 9 4 5 19 -4 35 -20 30 -29 72 -38 100 -20 10 6 21 0 39 -21 22
-26 30 -29 71 -26 41 3 49 0 70 -25 22 -26 29 -29 73 -25 35 4 48 2 48 -8 0
-7 12 -22 28 -34 20 -17 36 -21 65 -17 20 3 37 2 37 -3 0 -4 12 -20 27 -34 22
-22 35 -27 65 -24 30 3 39 -1 47 -19 15 -34 57 -56 91 -50 23 5 30 2 35 -14
11 -35 46 -59 87 -59 28 0 38 -4 38 -15 0 -29 47 -65 85 -65 24 0 35 -5 35
-14 0 -8 11 -27 24 -42 17 -21 32 -28 60 -28 28 0 36 -4 36 -17 0 -31 43 -72
78 -73 24 -1 32 -6 37 -26 10 -37 45 -70 76 -70 21 0 28 -6 34 -27 10 -41 44
-73 77 -73 24 0 28 -4 28 -28 0 -35 32 -71 71 -79 23 -4 29 -11 29 -30 0 -30
51 -83 79 -83 17 0 21 -6 21 -32 0 -38 34 -78 67 -78 20 0 23 -5 23 -39 0 -31
6 -44 26 -60 15 -12 33 -21 40 -21 9 0 14 -12 14 -35 0 -38 36 -85 65 -85 10
0 15 -10 15 -30 0 -43 19 -78 52 -92 22 -10 28 -18 23 -35 -8 -32 11 -72 44
-91 24 -13 29 -21 24 -43 -6 -32 20 -85 46 -94 15 -5 19 -15 18 -52 0 -40 4
-50 30 -72 26 -22 29 -31 25 -63 -3 -32 1 -42 27 -68 25 -25 29 -36 24 -60 -7
-37 13 -87 38 -95 15 -5 18 -12 12 -28 -14 -40 -6 -77 20 -105 19 -20 24 -31
17 -42 -17 -27 -11 -68 16 -99 20 -24 23 -34 15 -50 -18 -33 -12 -70 14 -97
20 -20 23 -29 14 -40 -18 -22 -13 -83 9 -107 18 -20 19 -25 7 -47 -20 -35 -18
-63 5 -93 20 -25 20 -28 5 -58 -18 -34 -13 -73 12 -101 15 -16 15 -20 0 -36
-21 -22 -22 -81 -3 -107 12 -16 11 -23 -5 -49 -23 -37 -23 -52 -4 -90 14 -26
14 -31 0 -46 -25 -27 -30 -76 -10 -106 15 -23 15 -27 1 -37 -28 -22 -37 -65
-22 -101 12 -30 12 -34 -10 -60 -25 -29 -31 -65 -14 -96 8 -15 5 -24 -15 -44
-26 -27 -32 -64 -14 -97 8 -17 6 -24 -15 -40 -29 -23 -42 -70 -26 -99 10 -18
7 -25 -19 -49 -32 -30 -40 -66 -21 -101 8 -15 6 -20 -10 -25 -34 -11 -53 -50
-46 -94 5 -34 3 -41 -15 -46 -28 -9 -52 -67 -40 -98 8 -21 6 -26 -14 -35 -37
-17 -58 -56 -51 -96 6 -30 4 -34 -19 -40 -30 -8 -57 -61 -48 -94 4 -17 -1 -24
-20 -31 -35 -14 -60 -54 -55 -90 4 -24 0 -30 -27 -40 -33 -12 -55 -46 -55 -85
0 -17 -9 -27 -30 -36 -36 -15 -50 -37 -50 -79 0 -24 -5 -30 -29 -36 -37 -8
-53 -27 -60 -72 -5 -31 -11 -38 -38 -45 -38 -10 -63 -42 -63 -80 0 -23 -4 -28
-25 -28 -33 0 -75 -42 -75 -75 0 -20 -5 -25 -24 -25 -33 0 -73 -35 -81 -69 -5
-23 -13 -30 -39 -35 -38 -7 -62 -30 -71 -68 -6 -23 -13 -28 -37 -28 -34 0 -78
-39 -78 -70 0 -16 -6 -20 -35 -20 -39 0 -85 -38 -85 -69 0 -13 -9 -17 -35 -17
-39 0 -85 -36 -85 -66 0 -14 -5 -17 -23 -13 -34 9 -76 -11 -95 -45 -13 -23
-24 -30 -49 -30 -46 0 -62 -9 -79 -42 -12 -24 -20 -29 -39 -24 -33 8 -72 -9
-92 -41 -14 -22 -24 -27 -47 -25 -45 5 -76 -6 -88 -33 -10 -22 -16 -24 -49
-19 -44 7 -83 -12 -94 -46 -5 -16 -10 -18 -25 -10 -34 18 -70 11 -101 -20 -25
-25 -34 -28 -50 -19 -29 15 -75 2 -99 -28 -16 -20 -23 -24 -32 -15 -21 21 -77
14 -104 -13 -20 -20 -29 -23 -44 -15 -31 16 -67 11 -96 -13 -25 -22 -29 -23
-56 -9 -33 16 -70 10 -97 -17 -16 -16 -21 -16 -42 -5 -34 19 -73 17 -101 -6
-22 -17 -27 -18 -44 -5 -27 20 -75 18 -104 -5 -23 -17 -26 -18 -43 -2 -23 21
-81 21 -104 0 -17 -15 -20 -15 -42 3 -27 22 -66 24 -101 5 -21 -12 -27 -12
-49 5 -28 23 -69 24 -98 4 -18 -13 -22 -12 -38 5 -25 27 -68 34 -103 16 -26
-14 -30 -13 -45 4 -22 26 -64 35 -99 22 -25 -9 -32 -7 -53 14 -26 26 -63 31
-96 13 -17 -8 -24 -6 -39 14 -24 30 -60 40 -94 27 -22 -8 -30 -5 -56 22 -27
27 -36 30 -71 25 -34 -4 -43 -1 -70 25 -27 27 -35 30 -73 25 -39 -6 -44 -4
-54 18 -13 27 -47 39 -92 33 -19 -3 -30 0 -30 7 0 6 -12 22 -26 36 -18 17 -36
23 -65 23 -21 -1 -39 3 -39 8 0 5 -11 20 -25 33 -17 18 -35 25 -63 25 -31 0
-41 5 -50 24 -16 36 -57 60 -91 53 -26 -5 -29 -3 -35 23 -6 35 -56 65 -92 56
-20 -5 -24 -3 -24 14 0 34 -44 70 -85 70 -29 0 -35 4 -35 20 0 31 -44 70 -80
70 -24 0 -30 4 -30 21 0 29 -53 79 -84 79 -20 0 -26 5 -26 21 0 29 -53 79 -84
79 -22 0 -26 5 -26 27 0 36 -36 73 -72 73 -24 0 -28 4 -28 29 0 37 -35 81 -64
81 -19 0 -25 7 -30 39 -6 43 -44 81 -78 81 -15 0 -18 5 -13 20 9 28 -20 75
-55 90 -25 10 -30 18 -30 45 0 34 -40 85 -66 85 -9 0 -14 12 -14 33 0 39 -23
75 -56 87 -19 8 -23 15 -19 33 9 34 -10 74 -43 91 -24 12 -28 20 -25 41 7 35
-14 80 -43 94 -22 9 -25 16 -19 40 8 35 -16 87 -44 96 -15 5 -18 13 -13 50 4
40 1 48 -25 72 -25 24 -29 34 -25 70 3 37 0 47 -25 72 -20 20 -27 34 -22 43
18 27 9 69 -20 98 -18 19 -25 33 -20 42 18 27 10 78 -16 104 -20 20 -23 29
-15 44 17 32 12 76 -13 100 -22 21 -23 25 -10 52 17 34 10 79 -17 103 -17 16
-18 20 -5 38 21 30 19 70 -6 101 -19 24 -19 27 -5 48 21 30 20 70 -3 99 -17
22 -17 27 -5 44 18 24 18 86 0 110 -12 17 -12 22 5 44 23 29 24 69 3 100 -10
14 -13 26 -7 30 32 20 42 85 19 116 -12 17 -11 23 10 48 27 32 30 60 10 96
-11 21 -10 26 11 47 25 25 32 81 11 102 -9 9 -6 18 15 40 28 29 35 69 17 101
-7 14 -4 23 15 39 31 27 41 66 25 100 -8 20 -9 27 0 30 6 2 20 14 31 26 17 17
20 30 15 68 -4 39 -2 48 13 53 26 8 44 49 39 86 -4 28 0 38 30 66 31 30 34 36
28 72 -5 34 -3 41 14 46 32 10 53 51 47 89 -4 28 -2 35 18 44 36 17 59 57 51
92 -4 23 -2 30 10 30 30 0 64 47 64 90 0 33 3 40 19 40 28 0 61 47 61 86 0 23
5 34 14 34 8 0 27 11 42 24 21 17 28 32 28 60 0 30 4 36 21 36 11 0 28 6 37
14 20 15 41 64 34 82 -3 7 7 14 24 17 37 8 70 44 70 78 0 21 6 28 30 32 40 9
70 41 70 77 0 27 3 30 30 30 36 0 68 30 77 70 4 24 11 30 32 30 34 0 70 33 78
71 3 16 9 26 14 23 5 -3 24 0 43 6 30 10 48 31 58 69 2 7 19 15 38 16 35 3 80
42 80 71 0 9 11 14 34 14 39 0 86 33 86 61 0 16 7 19 40 19 43 0 90 34 90 64
0 12 7 14 30 10 35 -8 75 15 92 51 9 20 16 22 44 18 38 -6 79 15 89 47 5 17
12 19 45 14 35 -6 43 -3 72 27 28 27 39 32 73 30 29 -2 46 4 63 19 12 11 22
25 22 30 0 5 16 6 34 3 50 -8 85 4 98 32 9 19 15 22 29 15 32 -18 76 -11 100
14 21 21 30 24 72 19 43 -5 51 -3 76 21 18 18 31 24 35 17 13 -21 85 -13 110
12 20 20 26 22 42 10 26 -19 67 -16 97 8 21 16 31 18 46 10 32 -18 86 -13 106
9 16 17 20 18 38 5 12 -8 37 -15 56 -15z m1072 9 c27 -27 21 -67 -14 -93 -26
-19 -30 -19 -55 -5 -37 20 -43 80 -10 103 30 22 54 20 79 -5z m-1928 -30 c29
-16 37 -28 37 -61 0 -29 -31 -58 -62 -58 -26 0 -58 36 -58 64 0 15 11 33 26
45 31 25 29 24 57 10z m2050 0 c29 -16 37 -28 37 -61 0 -29 -31 -58 -62 -58
-26 0 -58 36 -58 64 0 15 11 33 26 45 31 25 29 24 57 10z m-2165 -67 c28 -37
-2 -102 -48 -102 -27 0 -60 35 -60 64 0 53 75 80 108 38z m2330 0 c30 -39 0
-102 -50 -102 -26 0 -58 36 -58 64 0 53 75 80 108 38z m-2476 -49 c39 -35 13
-103 -39 -103 -57 0 -82 61 -43 100 24 24 57 26 82 3z m2606 1 c43 -30 17
-104 -36 -104 -54 0 -81 62 -45 102 20 22 51 23 81 2z m-2739 -68 c44 -46 -4
-119 -63 -96 -49 18 -54 83 -8 109 27 16 47 13 71 -13z m2880 -2 c12 -15 21
-33 21 -41 0 -19 -45 -63 -65 -63 -20 0 -65 44 -65 63 0 25 41 67 65 67 14 0
32 -11 44 -26z m-3010 -71 c34 -43 7 -93 -50 -93 -30 0 -59 31 -59 62 0 26 36
58 64 58 15 0 33 -11 45 -27z m3141 7 c24 -24 26 -57 3 -82 -34 -38 -103 -11
-103 40 0 56 61 81 100 42z m-3275 -75 c14 -13 25 -31 25 -40 0 -21 -44 -65
-65 -65 -21 0 -65 44 -65 65 0 21 44 65 65 65 9 0 27 -11 40 -25z m3404 1 c29
-30 24 -63 -12 -90 -26 -19 -30 -19 -55 -5 -37 20 -43 80 -10 103 31 22 51 20
77 -8z m-3528 -77 c27 -27 21 -67 -14 -93 -26 -19 -30 -19 -55 -5 -37 20 -43
80 -10 103 30 22 54 20 79 -5z m3654 -4 c14 -13 25 -31 25 -40 0 -9 -11 -27
-25 -40 -13 -14 -31 -25 -40 -25 -21 0 -65 45 -65 66 0 24 39 64 62 64 10 0
30 -11 43 -25z m-3769 -90 c32 -49 -11 -106 -69 -92 -21 6 -47 42 -47 67 0 21
41 50 70 50 20 0 35 -8 46 -25z m3898 3 c9 -12 16 -30 16 -40 0 -26 -36 -58
-64 -58 -32 0 -69 45 -60 74 14 49 81 63 108 24z m-4020 -90 c22 -30 20 -54
-5 -79 -27 -27 -66 -21 -92 12 -16 23 -17 30 -7 50 17 31 29 39 62 39 17 0 33
-9 42 -22z m4136 2 c11 -11 20 -29 20 -40 0 -28 -35 -60 -65 -60 -30 0 -65 32
-65 60 0 28 35 60 65 60 14 0 34 -9 45 -20z m-4262 -86 c33 -23 27 -83 -10
-103 -25 -14 -29 -14 -55 5 -39 29 -41 66 -7 93 32 25 42 26 72 5z m4372 -4
c11 -11 20 -31 20 -45 0 -30 -32 -65 -60 -65 -28 0 -60 35 -60 65 0 30 32 65
60 65 11 0 29 -9 40 -20z m-4482 -96 c30 -21 30 -77 0 -98 -30 -21 -47 -20
-75 6 -30 28 -29 62 3 87 32 25 43 26 72 5z m4575 5 c28 -15 37 -28 37 -56 0
-28 -33 -63 -60 -63 -28 0 -60 35 -60 65 0 25 31 65 51 65 6 0 20 -5 32 -11z
m-4673 -119 c11 -11 20 -28 20 -38 0 -31 -29 -62 -59 -62 -57 0 -84 50 -50 93
25 32 61 35 89 7z m4794 5 c43 -43 20 -105 -39 -105 -26 0 -39 6 -51 25 -26
39 4 95 51 95 13 0 30 -7 39 -15z m-4894 -115 c39 -39 12 -100 -44 -100 -55 0
-79 50 -45 93 25 32 61 35 89 7z m5000 0 c39 -39 12 -100 -44 -100 -55 0 -79
50 -45 93 25 32 61 35 89 7z m-5092 -118 c28 -37 -2 -102 -48 -102 -41 0 -75
62 -52 96 23 34 75 38 100 6z m5182 8 c27 -27 26 -75 -2 -94 -30 -21 -54 -20
-78 4 -28 28 -25 64 6 89 33 26 49 26 74 1z m-5280 -120 c11 -11 20 -31 20
-45 0 -30 -32 -65 -60 -65 -28 0 -60 35 -60 65 0 30 32 65 60 65 11 0 29 -9
40 -20z m5368 4 c33 -23 27 -83 -10 -103 -25 -14 -29 -14 -55 5 -36 27 -41 60
-12 90 26 28 46 30 77 8z m-5438 -147 c13 -24 13 -28 -6 -54 -28 -37 -70 -38
-97 -1 -17 23 -19 31 -9 53 23 50 84 51 112 2z m5540 0 c19 -33 1 -74 -36 -83
-70 -18 -108 80 -44 113 29 15 61 3 80 -30z m-5631 -113 c12 -15 21 -33 21
-41 0 -19 -45 -63 -65 -63 -21 0 -65 44 -65 65 0 22 45 65 69 65 11 0 29 -12
40 -26z m5698 4 c30 -28 29 -53 -2 -83 -29 -30 -46 -31 -73 -7 -34 29 -37 58
-8 87 31 31 53 32 83 3z m-5779 -124 c39 -27 25 -94 -24 -108 -29 -9 -74 28
-74 60 0 28 32 64 58 64 10 0 28 -7 40 -16z m5850 0 c39 -27 25 -94 -24 -108
-29 -9 -74 28 -74 60 0 28 32 64 58 64 10 0 28 -7 40 -16z m-5909 -139 c21
-20 17 -66 -9 -87 -29 -24 -49 -23 -77 4 -30 28 -29 53 2 84 27 26 55 26 84
-1z m5975 4 c31 -25 34 -61 6 -89 -24 -24 -48 -25 -78 -4 -36 25 -25 92 18
107 24 9 26 8 54 -14z m-6046 -135 c13 -9 22 -25 22 -42 0 -33 -8 -45 -39 -62
-20 -10 -27 -9 -50 7 -33 26 -39 65 -12 92 25 25 49 27 79 5z m6110 0 c32 -22
26 -70 -10 -97 l-28 -21 -27 21 c-35 25 -41 65 -14 92 25 25 49 27 79 5z
m-6158 -144 c24 -24 25 -48 4 -78 -22 -32 -78 -30 -100 3 -40 61 43 128 96 75z
m6220 0 c11 -11 20 -28 20 -38 0 -31 -29 -62 -59 -62 -57 0 -84 50 -50 93 25
32 61 35 89 7z m-6271 -146 c12 -15 21 -32 21 -39 0 -26 -36 -57 -65 -57 -29
0 -65 31 -65 57 0 24 41 65 65 65 14 0 32 -11 44 -26z m6321 6 c25 -25 25 -51
2 -80 -21 -26 -67 -30 -87 -9 -25 26 -26 55 -4 82 25 32 61 35 89 7z m-6372
-136 c30 -21 30 -77 0 -98 -30 -21 -47 -20 -75 6 -30 28 -29 62 3 87 32 25 43
26 72 5z m6412 -4 c11 -11 20 -31 20 -45 0 -30 -32 -65 -60 -65 -28 0 -60 35
-60 65 0 30 32 65 60 65 11 0 29 -9 40 -20z m-6440 -150 c11 -11 20 -29 20
-40 0 -28 -35 -60 -65 -60 -30 0 -65 32 -65 60 0 28 35 60 65 60 14 0 34 -9
45 -20z m6480 0 c24 -24 25 -48 4 -78 -22 -31 -67 -29 -93 4 -12 15 -21 30
-21 34 0 4 9 19 21 34 25 31 61 34 89 6z m-6515 -145 c14 -13 25 -30 25 -38 0
-25 -41 -67 -65 -67 -24 0 -65 42 -65 67 0 19 45 63 65 63 9 0 27 -11 40 -25z
m6539 4 c31 -25 34 -61 6 -89 -24 -24 -48 -25 -77 -5 -39 27 -34 87 9 105 32
12 32 12 62 -11z m-6566 -145 c28 -19 29 -67 2 -94 -23 -23 -33 -24 -63 -9
-43 23 -50 66 -17 99 24 24 48 25 78 4z m6590 0 c28 -19 29 -67 2 -94 -25 -25
-41 -25 -74 1 -31 25 -34 61 -6 89 24 24 48 25 78 4z m-6599 -161 c34 -42 8
-95 -45 -95 -31 0 -64 33 -64 63 0 27 35 59 64 59 15 0 33 -11 45 -27z m6621
7 c28 -28 25 -64 -7 -89 -43 -34 -93 -7 -93 50 0 30 31 59 62 59 10 0 27 -9
38 -20z m-6635 -150 c23 -25 23 -70 -1 -87 -28 -20 -71 -16 -88 9 -21 30 -20
54 4 78 25 25 62 26 85 0z m6645 0 c24 -24 26 -57 3 -82 -34 -38 -103 -11
-103 40 0 56 61 81 100 42z m-6650 -150 c24 -24 26 -57 3 -82 -34 -38 -103
-11 -103 40 0 56 61 81 100 42z m6659 -7 c34 -42 8 -95 -45 -95 -31 0 -64 33
-64 63 0 27 35 59 64 59 15 0 33 -11 45 -27z m-6654 -143 c37 -41 13 -102 -39
-102 -58 0 -86 62 -46 102 25 25 62 26 85 0z m6645 0 c53 -53 -16 -135 -74
-89 -33 26 -35 72 -4 93 30 21 54 20 78 -4z m-6631 -157 c34 -43 7 -93 -50
-93 -30 0 -59 31 -59 62 0 26 36 58 64 58 15 0 33 -11 45 -27z m6621 7 c24
-24 26 -57 3 -82 -34 -38 -103 -11 -103 40 0 56 61 81 100 42z m-6608 -147
c22 -20 23 -61 1 -85 -34 -38 -103 -11 -103 40 0 54 62 81 102 45z m6590 0
c22 -20 23 -61 1 -85 -34 -38 -103 -11 -103 40 0 54 62 81 102 45z m-6552
-166 c13 -24 13 -28 -6 -54 -28 -37 -70 -38 -97 -1 -17 23 -19 31 -9 53 23 50
84 51 112 2z m6540 0 c19 -33 1 -74 -36 -83 -70 -18 -108 80 -44 113 29 15 61
3 80 -30z m-6525 -132 c14 -13 25 -31 25 -40 0 -21 -44 -65 -65 -65 -21 0 -65
44 -65 65 0 21 44 65 65 65 9 0 27 -11 40 -25z m6482 3 c30 -28 29 -53 -2 -83
-29 -30 -45 -31 -75 -7 -42 34 -16 112 38 112 9 0 26 -10 39 -22z m-6445 -145
c37 -33 11 -103 -39 -103 -12 0 -32 9 -43 20 -55 55 24 135 82 83z m6410 0
c22 -20 23 -61 1 -85 -34 -38 -103 -11 -103 40 0 54 62 81 102 45z m-6365
-145 c13 -12 23 -29 23 -39 0 -29 -34 -61 -65 -61 -29 0 -65 31 -65 57 0 22
41 65 63 65 11 0 31 -10 44 -22z m6323 2 c25 -25 25 -51 2 -80 -21 -26 -67
-30 -87 -9 -25 26 -26 55 -4 82 25 32 61 35 89 7z m-6271 -146 c12 -15 21 -32
21 -39 0 -26 -36 -57 -65 -57 -29 0 -65 31 -65 57 0 24 41 65 65 65 14 0 32
-11 44 -26z m6220 2 c44 -46 -4 -119 -63 -96 -28 10 -51 53 -40 73 30 52 68
61 103 23z m-6167 -133 c38 -34 11 -103 -40 -103 -56 0 -81 61 -42 100 24 24
57 26 82 3z m6110 0 c38 -34 11 -103 -40 -103 -57 0 -85 73 -40 104 29 21 57
20 80 -1z m-6034 -157 c12 -23 11 -31 -3 -52 -20 -31 -37 -38 -70 -30 -35 9
-52 48 -37 81 23 50 86 51 110 1z m5975 16 c36 -31 5 -102 -45 -102 -44 0 -75
59 -50 96 22 33 60 35 95 6z m-5921 -129 c38 -34 11 -103 -40 -103 -32 0 -62
27 -62 54 0 56 62 86 102 49z m5850 0 c22 -20 23 -61 1 -85 -34 -38 -103 -11
-103 40 0 54 62 81 102 45z m-5772 -133 c11 -11 20 -29 20 -40 0 -28 -35 -60
-65 -60 -37 0 -68 35 -60 68 12 52 68 69 105 32z m5700 0 c24 -24 25 -48 4
-78 -15 -22 -57 -30 -80 -14 -18 12 -35 52 -28 65 29 50 70 61 104 27z m-5610
-143 c13 -24 13 -28 -6 -54 -28 -37 -70 -38 -97 -1 -17 23 -19 31 -9 53 23 50
84 51 112 2z m5525 18 c30 -29 32 -58 5 -85 -24 -24 -48 -25 -77 -5 -39 27
-34 87 9 105 34 13 37 12 63 -15z m-5453 -122 c22 -20 23 -61 1 -85 -34 -38
-103 -11 -103 40 0 54 62 81 102 45z m5370 0 c39 -35 11 -103 -43 -103 -29 0
-59 31 -59 60 0 50 64 78 102 43z m-5280 -120 c36 -32 11 -103 -36 -103 -34 0
-66 28 -66 57 0 55 62 83 102 46z m5190 0 c37 -33 11 -103 -39 -103 -29 0 -63
33 -63 62 0 50 63 76 102 41z m-5095 -115 c13 -12 23 -29 23 -39 0 -29 -34
-61 -64 -61 -53 0 -79 53 -45 95 25 33 55 34 86 5z m5002 -4 c12 -15 21 -32
21 -39 0 -26 -36 -57 -65 -57 -29 0 -65 31 -65 57 0 24 41 65 65 65 14 0 32
-11 44 -26z m-4900 -108 c44 -46 -4 -119 -63 -96 -28 10 -51 53 -40 73 30 52
68 61 103 23z m4800 -2 c12 -15 21 -32 21 -39 0 -26 -36 -57 -65 -57 -29 0
-65 31 -65 57 0 24 41 65 65 65 14 0 32 -11 44 -26z m-4697 -101 c37 -33 11
-103 -39 -103 -12 0 -32 9 -43 20 -55 55 24 135 82 83z m4590 0 c38 -34 11
-103 -40 -103 -54 0 -81 62 -45 102 20 22 61 23 85 1z m-4480 -100 c37 -33 11
-103 -39 -103 -12 0 -32 9 -43 20 -55 55 24 135 82 83z m4370 0 c38 -34 11
-103 -40 -103 -54 0 -81 62 -45 102 20 22 61 23 85 1z m-4258 -94 c15 -12 26
-30 26 -44 0 -24 -41 -65 -65 -65 -26 0 -57 36 -57 65 0 29 31 65 57 65 7 0
24 -9 39 -21z m4141 -4 c14 -13 25 -31 25 -40 0 -21 -44 -65 -65 -65 -21 0
-65 44 -65 65 0 21 44 65 65 65 9 0 27 -11 40 -25z m-4020 -90 c14 -13 25 -31
25 -40 0 -21 -44 -65 -65 -65 -21 0 -65 44 -65 65 0 21 44 65 65 65 9 0 27
-11 40 -25z m3900 0 c14 -13 25 -31 25 -40 0 -21 -44 -65 -65 -65 -21 0 -65
44 -65 65 0 21 44 65 65 65 9 0 27 -11 40 -25z m-3765 -97 c13 -25 13 -31 0
-55 -30 -53 -110 -34 -110 25 0 63 79 84 110 30z m3636 24 c51 -34 28 -111
-33 -112 -28 0 -63 33 -63 60 0 42 62 75 96 52z m-3531 -78 c37 -15 38 -82 1
-106 -20 -14 -56 -8 -76 12 -49 49 7 120 75 94z m3425 -26 c13 -25 13 -31 0
-55 -30 -53 -110 -34 -110 25 0 63 79 84 110 30z m-3278 -69 c24 -32 11 -75
-28 -89 -59 -23 -107 50 -63 96 29 31 65 28 91 -7z m3138 11 c28 -28 25 -64
-7 -89 -43 -34 -93 -7 -93 50 0 30 31 59 62 59 10 0 27 -9 38 -20z m-3010 -70
c11 -11 20 -28 20 -38 0 -31 -29 -62 -59 -62 -57 0 -84 50 -50 93 25 32 61 35
89 7z m2880 0 c24 -24 25 -48 4 -78 -19 -28 -67 -29 -94 -2 -23 23 -24 33 -9
63 23 43 66 50 99 17z m-2748 -57 c38 -34 14 -105 -36 -105 -58 0 -86 62 -46
102 24 24 57 26 82 3z m2609 -4 c27 -27 21 -67 -13 -92 l-28 -21 -27 21 c-37
27 -43 75 -11 97 30 22 54 20 79 -5z m-2467 -58 c25 -28 17 -72 -16 -91 -25
-13 -31 -13 -55 0 -54 30 -34 110 27 110 15 0 35 -9 44 -19z m2330 3 c35 -34
8 -104 -41 -104 -29 0 -63 33 -63 62 0 49 69 78 104 42z m-2200 -45 c47 -37
23 -109 -36 -109 -26 0 -58 36 -58 64 0 22 40 66 60 66 4 0 19 -9 34 -21z
m2039 10 c29 -16 37 -28 37 -61 0 -29 -31 -58 -62 -58 -26 0 -58 36 -58 64 0
15 11 33 26 45 31 25 29 24 57 10z m-1880 -71 l21 -28 -21 -27 c-27 -37 -75
-43 -97 -11 -22 30 -20 54 5 79 27 27 67 21 92 -13z m1761 10 c21 -29 20 -57
-1 -80 -34 -38 -103 -11 -103 40 0 57 73 85 104 40z m-1630 -29 c31 -25 34
-61 6 -89 -24 -24 -48 -25 -78 -4 -33 23 -28 83 8 101 33 17 33 16 64 -8z
m1489 -11 c22 -26 22 -40 -4 -72 -25 -32 -55 -33 -86 -4 -30 28 -29 53 2 84
29 29 58 26 88 -8z m-1358 -8 c35 -13 50 -55 30 -86 -23 -36 -61 -41 -91 -13
-31 29 -31 53 1 84 28 29 26 28 60 15z m1199 -11 c31 -25 34 -61 6 -89 -24
-24 -48 -25 -78 -4 -36 25 -25 92 18 107 24 9 26 8 54 -14z m-1032 -26 c22
-20 23 -61 1 -85 -34 -38 -103 -11 -103 40 0 54 62 81 102 45z m890 0 c38 -34
11 -103 -40 -103 -54 0 -81 62 -45 102 20 22 61 23 85 1z m-748 -14 c31 -25
34 -61 6 -89 -24 -24 -48 -25 -78 -4 -36 25 -25 92 18 107 24 9 26 8 54 -14z
m581 11 c35 -13 50 -55 30 -86 -23 -36 -61 -41 -91 -13 -31 29 -31 53 1 84 28
29 26 28 60 15z m-430 -25 c32 -31 32 -55 0 -85 -21 -20 -30 -22 -52 -14 -55
19 -62 86 -12 111 33 17 36 17 64 -12z m300 0 c14 -13 25 -30 25 -38 0 -25
-41 -67 -65 -67 -24 0 -65 42 -65 67 0 19 45 63 65 63 9 0 27 -11 40 -25z
m-145 -5 c11 -11 20 -29 20 -40 0 -42 -62 -75 -96 -52 -24 16 -35 51 -23 75
23 43 66 50 99 17z"/>
<path d="M4705 7730 c-10 -22 -20 -40 -22 -40 -2 0 -20 7 -40 15 -20 8 -38 14
-40 12 -2 -3 21 -23 51 -45 l55 -42 5 28 c11 59 18 112 13 112 -2 0 -12 -18
-22 -40z"/>
<path d="M4756 7710 c3 -36 8 -68 11 -72 2 -4 29 11 59 33 30 23 53 43 51 46
-2 2 -21 -4 -42 -12 -20 -9 -38 -15 -40 -13 -1 2 -12 21 -24 43 l-22 40 7 -65z"/>
<path d="M4580 7708 c0 -3 7 -25 15 -48 8 -24 14 -44 13 -45 -2 -2 -21 -12
-43 -23 l-40 -21 50 6 c101 13 100 10 49 77 -24 33 -44 57 -44 54z"/>
<path d="M4847 7650 c-20 -27 -37 -51 -37 -54 0 -5 131 -28 136 -23 2 2 -14
12 -36 22 -42 19 -46 28 -30 71 16 42 7 38 -33 -16z"/>
<path d="M4530 7553 c0 -1 18 -12 40 -23 22 -11 40 -22 40 -24 0 -2 -7 -22
-15 -45 -8 -22 -13 -41 -11 -41 6 0 88 111 84 115 -5 4 -138 22 -138 18z"/>
<path d="M4875 7548 c-33 -5 -62 -11 -64 -13 -2 -2 13 -27 34 -55 42 -57 53
-60 31 -6 l-15 36 47 25 c52 27 52 27 -33 13z"/>
<path d="M3597 7479 c42 -70 35 -71 91 23 28 46 24 48 -21 8 l-34 -29 -28 29
c-45 47 -47 35 -8 -31z"/>
<path d="M5741 7493 l-1 -52 -52 -3 -53 -3 41 -12 c22 -7 55 -16 73 -19 l33
-7 -7 34 c-4 18 -13 52 -20 74 l-13 40 -1 -52z"/>
<path d="M5791 7488 c17 -29 34 -57 38 -61 5 -4 24 19 44 52 20 34 33 61 30
61 -4 0 -21 -14 -38 -30 l-31 -30 -29 30 c-43 45 -48 36 -14 -22z"/>
<path d="M3540 7487 l0 -47 -46 0 c-25 0 -43 -4 -40 -8 6 -10 115 -36 122 -29
6 5 -21 116 -30 125 -3 3 -6 -16 -6 -41z"/>
<path d="M3708 7470 c-9 -35 -15 -66 -13 -68 2 -2 32 3 67 10 l63 15 -47 7
-47 7 -3 47 -3 47 -17 -65z"/>
<path d="M5913 7495 c-32 -107 -34 -104 52 -81 l50 13 -42 7 c-42 8 -42 8 -45
54 l-3 47 -12 -40z"/>
<path d="M4652 7457 c-29 -22 -51 -42 -49 -44 2 -2 21 4 42 12 20 9 38 15 40
13 1 -2 12 -21 24 -43 l21 -40 -6 50 c-13 99 -12 98 -72 52z"/>
<path d="M4756 7444 c-11 -81 -7 -93 14 -47 l19 43 42 -15 c59 -21 59 -20 -1
25 -29 22 -57 40 -60 40 -4 0 -10 -21 -14 -46z"/>
<path d="M3440 7412 c0 -5 14 -21 30 -37 l30 -29 -32 -33 c-17 -18 -30 -35
-27 -37 7 -7 114 62 110 71 -6 12 -111 73 -111 65z"/>
<path d="M5640 7411 c0 -4 14 -20 30 -36 l30 -29 -30 -31 c-16 -17 -30 -34
-30 -38 0 -6 96 47 112 61 4 4 -20 24 -53 44 -32 20 -59 34 -59 29z"/>
<path d="M5966 7381 c-66 -40 -69 -32 28 -90 l40 -24 -23 31 c-12 17 -27 34
-32 38 -6 4 3 20 22 40 18 19 31 35 28 37 -2 2 -31 -12 -63 -32z"/>
<path d="M3761 7378 l-54 -32 23 -15 c96 -65 128 -72 70 -16 l-30 29 32 33
c40 41 29 41 -41 1z"/>
<path d="M3503 7277 c-60 -17 -64 -27 -10 -27 l46 0 3 -47 3 -48 12 40 c26 88
27 95 7 94 -11 -1 -38 -6 -61 -12z"/>
<path d="M3694 7259 c3 -18 12 -51 19 -73 l12 -41 3 53 3 52 52 1 52 1 -40 13
c-22 7 -56 16 -74 20 l-34 7 7 -33z"/>
<path d="M5703 7277 c-60 -17 -63 -27 -10 -27 l47 0 1 -52 1 -53 13 40 c7 22
16 55 19 73 9 37 2 38 -71 19z"/>
<path d="M5890 7283 c0 -5 5 -36 12 -68 9 -44 13 -54 19 -39 4 10 8 31 8 46 1
25 5 27 49 30 l47 3 -40 12 c-73 22 -95 25 -95 16z"/>
<path d="M3597 7210 c-20 -33 -33 -60 -30 -60 4 0 21 14 38 30 l31 30 29 -30
c45 -46 48 -36 8 30 -19 33 -37 60 -38 60 -1 0 -19 -27 -38 -60z"/>
<path d="M5797 7214 c-20 -32 -34 -61 -31 -63 2 -3 19 10 37 27 l33 32 32 -32
c41 -42 40 -27 -2 41 l-33 53 -36 -58z"/>
<path d="M3525 7070 c-109 -44 -192 -133 -230 -249 -26 -79 -18 -207 18 -285
31 -68 44 -72 20 -6 -11 30 -17 78 -17 145 -1 94 1 105 32 167 38 78 82 120
172 162 57 27 75 31 150 31 66 -1 96 -6 135 -23 86 -39 155 -119 188 -216 19
-55 22 -161 7 -201 -6 -17 -6 -24 0 -20 5 3 17 31 26 62 46 158 -41 345 -194
420 -49 24 -71 28 -157 30 -81 2 -110 -1 -150 -17z"/>
<path d="M5799 7076 c-102 -39 -177 -102 -218 -182 -59 -119 -36 -319 45 -395
l25 -23 -21 46 c-24 55 -42 145 -34 170 4 14 16 18 49 18 34 0 44 4 48 20 4
17 0 20 -32 20 -62 0 -69 27 -28 106 49 93 206 191 260 163 18 -10 19 -18 14
-85 -7 -74 -7 -74 18 -74 31 0 45 26 45 84 0 46 18 76 46 76 28 0 115 -51 155
-91 46 -46 88 -130 96 -190 l6 -39 -47 0 c-25 0 -46 -3 -46 -7 0 -17 17 -30
50 -39 33 -10 35 -12 33 -53 -1 -27 -15 -66 -38 -109 l-37 -67 31 30 c43 40
79 118 92 194 27 167 -64 337 -219 409 -48 23 -73 27 -157 29 -65 2 -112 -2
-136 -11z"/>
<path d="M2472 4693 c1 -1242 4 -2190 5 -2108 9 470 63 4070 63 4171 l0 121
148 7 c81 3 242 9 358 12 211 6 212 7 223 30 l11 24 -405 0 -405 0 2 -2257z"/>
<path d="M4023 6938 c4 -14 160 -13 512 2 151 6 131 7 -173 8 -271 2 -343 -1
-339 -10z"/>
<path d="M4772 4758 l1 -2193 17 2175 c10 1196 18 2176 19 2178 0 1 140 2 309
2 319 0 462 7 462 21 0 5 -182 9 -405 9 l-405 0 2 -2192z"/>
<path d="M6283 6944 c3 -4 159 -6 347 -5 l340 2 0 -38 c1 -21 -14 -1018 -32
-2215 l-33 -2178 -30 -4 c-16 -3 -487 -16 -1045 -31 -558 -14 -1026 -27 -1040
-29 -14 -2 473 -4 1083 -5 l1107 -1 0 2255 0 2255 -352 0 c-193 0 -349 -3
-345 -6z"/>
<path d="M3635 6871 c-135 -35 -216 -173 -240 -406 -4 -38 -23 -121 -41 -184
-35 -114 -38 -148 -11 -94 42 80 70 171 91 295 44 254 118 352 266 352 87 0
139 -27 177 -91 25 -43 27 -57 34 -202 7 -162 14 -193 64 -292 16 -30 34 -74
41 -99 l12 -45 1 43 c1 30 -12 76 -38 141 -35 88 -41 113 -51 235 -6 76 -15
159 -21 186 -13 62 -56 122 -104 144 -42 20 -135 29 -180 17z"/>
<path d="M5880 6840 c-93 -12 -134 -41 -170 -122 -33 -74 -41 -178 -25 -294 8
-54 15 -117 15 -140 0 -22 11 -62 24 -87 12 -26 21 -49 18 -52 -3 -3 -26 -5
-51 -5 -65 0 -122 -18 -154 -48 -29 -28 -57 -105 -56 -156 0 -27 3 -24 21 24
22 60 59 114 86 129 10 5 53 14 97 20 81 12 125 36 125 69 0 13 -3 12 -18 -1
-10 -10 -22 -17 -26 -17 -41 0 -67 424 -32 519 38 103 93 144 196 145 118 1
184 -56 217 -188 15 -61 15 -75 -1 -188 -18 -139 -21 -247 -6 -298 l9 -35 -39
41 c-46 50 -63 103 -58 191 2 34 2 63 1 63 -2 0 -16 -26 -32 -57 -28 -56 -75
-109 -116 -131 -19 -11 -18 -11 7 -12 14 0 40 12 57 26 36 30 37 25 16 -65 -9
-35 -14 -66 -12 -68 2 -2 15 28 28 67 23 69 39 89 39 50 0 -33 99 -130 133
-130 2 0 -1 23 -6 52 -7 37 -7 97 1 202 16 203 15 269 -5 340 -23 82 -79 139
-152 155 -29 6 -57 10 -64 10 -7 -1 -37 -5 -67 -9z"/>
<path d="M5890 6799 c0 -23 43 -84 83 -119 47 -41 68 -79 70 -130 2 -48 17
-30 17 20 0 33 1 33 17 17 17 -17 17 -19 0 -49 -22 -39 -16 -47 11 -13 l20 26
7 -29 c7 -35 -7 -77 -32 -91 -17 -10 -17 -10 -1 -11 32 0 51 45 45 101 -9 75
-47 132 -127 190 -38 28 -79 62 -90 76 -11 15 -20 20 -20 12z"/>
<path d="M5858 6779 c-4 -9 -23 -24 -45 -34 -44 -20 -63 -41 -63 -69 0 -19 0
-19 23 0 12 11 34 28 49 37 30 19 51 52 45 70 -2 7 -6 5 -9 -4z"/>
<path d="M6669 6744 c-22 -24 -24 -34 -27 -170 l-4 -144 25 0 24 0 8 166 c4
91 5 167 3 170 -3 2 -15 -8 -29 -22z"/>
<path d="M3715 6734 c-22 -9 -71 -26 -110 -39 -98 -34 -41 -33 82 1 107 29
137 25 170 -25 26 -38 23 -167 -6 -243 -31 -81 -80 -150 -120 -170 -30 -15
-38 -15 -69 -2 -46 19 -52 17 -23 -6 30 -26 85 -26 126 0 45 28 103 115 120
181 19 70 19 209 1 253 -27 64 -87 82 -171 50z"/>
<path d="M3582 6638 c-18 -23 -41 -121 -51 -220 -6 -59 -21 -130 -39 -183 -20
-58 -25 -82 -15 -73 43 35 80 156 94 303 5 61 14 125 19 144 11 39 8 48 -8 29z"/>
<path d="M5798 6610 c16 -16 22 -33 23 -68 0 -35 3 -42 9 -27 17 39 11 83 -12
99 -32 23 -46 20 -20 -4z"/>
<path d="M5923 6623 c-42 -8 -24 -19 31 -19 44 0 53 3 44 13 -10 13 -31 14
-75 6z"/>
<path d="M5750 6585 c0 -21 27 -30 46 -15 12 11 12 15 2 21 -21 14 -48 10 -48
-6z"/>
<path d="M3607 6583 c-15 -14 -5 -18 41 -18 26 0 55 -4 65 -9 10 -5 17 -4 17
1 0 23 -104 45 -123 26z"/>
<path d="M5912 6579 c7 -22 36 -35 54 -24 27 17 20 30 -20 33 -27 2 -37 0 -34
-9z"/>
<path d="M4680 4528 c-7 -1129 -14 -2054 -15 -2056 -1 -1 -470 -9 -1041 -16
l-1039 -13 1058 -2 1057 -1 0 2070 c0 1139 -1 2070 -3 2070 -2 0 -9 -924 -17
-2052z"/>
<path d="M3785 6545 c-15 -14 -25 -36 -25 -52 0 -28 0 -28 18 7 11 24 28 38
51 46 26 8 30 12 16 17 -27 11 -34 9 -60 -18z"/>
<path d="M4391 6524 c32 -71 23 -165 -25 -264 -44 -91 -51 -152 -8 -69 16 30
41 75 56 102 18 31 30 67 33 105 4 49 1 65 -24 111 -36 69 -61 81 -32 15z"/>
<path d="M3630 6543 c0 -15 23 -33 41 -33 17 0 35 17 27 26 -10 9 -68 16 -68
7z"/>
<path d="M5730 6535 c-15 -18 -5 -69 17 -87 14 -12 15 -10 9 17 -5 17 -9 42
-9 58 -2 32 -1 31 -17 12z"/>
<path d="M3816 6517 c-13 -10 -16 -16 -7 -21 15 -10 53 3 48 17 -5 17 -21 18
-41 4z"/>
<path d="M4317 6490 c-14 -11 -33 -41 -43 -66 -19 -49 -15 -75 25 -184 17 -47
20 -50 21 -25 0 17 -6 63 -14 103 -15 81 -11 114 24 162 25 35 22 37 -13 10z"/>
<path d="M5860 6470 c-12 -8 -9 -10 13 -10 15 0 27 5 27 10 0 13 -20 13 -40 0z"/>
<path d="M6002 6438 c-32 -42 -36 -62 -7 -38 18 15 49 70 43 76 -2 2 -18 -15
-36 -38z"/>
<path d="M5884 6437 c10 -7 32 -23 47 -35 16 -13 29 -19 29 -14 0 16 -59 62
-78 61 -15 0 -15 -2 2 -12z"/>
<path d="M4475 6425 c28 -82 12 -136 -62 -217 -58 -63 -92 -126 -93 -168 0
-19 6 -13 24 26 14 31 42 66 71 90 66 55 95 108 95 175 0 39 -6 63 -21 84 -12
17 -18 22 -14 10z"/>
<path d="M5745 6379 c15 -105 48 -169 89 -169 l20 0 -20 15 c-25 17 -61 96
-70 154 -10 64 -28 64 -19 0z"/>
<path d="M3700 6410 c0 -5 9 -10 21 -10 11 0 17 5 14 10 -3 6 -13 10 -21 10
-8 0 -14 -4 -14 -10z"/>
<path d="M6543 6410 c-73 -29 -89 -177 -52 -464 14 -105 23 -253 28 -426 6
-250 7 -261 19 -199 17 92 15 382 -5 589 -9 96 -16 225 -17 285 -2 174 15 192
192 203 100 6 103 7 52 13 -79 10 -191 9 -217 -1z"/>
<path d="M6832 6403 c-25 -48 -35 -149 -42 -448 -12 -452 -35 -586 -139 -793
-55 -109 -87 -199 -76 -211 9 -8 154 304 184 394 56 169 65 254 63 607 -2 250
1 333 13 390 15 73 14 94 -3 61z"/>
<path d="M5810 6390 c-11 -7 -5 -10 25 -10 22 0 51 -3 65 -6 24 -5 24 -5 6 10
-22 18 -73 21 -96 6z"/>
<path d="M4223 6338 c-15 -49 -4 -86 48 -168 l41 -65 -5 43 c-3 24 -18 61 -34
84 -18 26 -30 59 -33 92 l-6 51 -11 -37z"/>
<path d="M3655 6351 c-15 -6 -3 -10 43 -16 69 -8 90 -1 48 15 -32 12 -63 12
-91 1z"/>
<path d="M5820 6350 c0 -11 39 -20 56 -13 25 9 15 19 -21 20 -19 1 -35 -3 -35
-7z"/>
<path d="M5121 6278 c-15 -40 -24 -158 -12 -158 6 0 11 13 11 29 0 46 22 131
32 125 6 -4 7 -28 3 -56 -5 -36 -4 -49 4 -44 6 4 11 17 11 29 0 12 4 27 8 34
4 6 7 -20 7 -57 l0 -68 -48 -5 c-35 -3 -56 -12 -74 -30 l-26 -25 21 -69 c12
-38 33 -86 46 -106 31 -45 42 -89 50 -187 7 -95 38 -217 76 -297 16 -35 31
-63 33 -63 2 0 -9 37 -24 83 -25 72 -38 139 -78 378 -5 31 -22 76 -40 104 -17
26 -38 71 -47 98 l-17 51 27 23 c15 13 40 23 56 23 32 0 42 -18 42 -76 0 -53
18 -40 19 14 1 36 3 41 8 22 8 -30 16 -20 37 50 9 29 21 50 29 50 12 0 12 -5
0 -33 -8 -19 -16 -67 -19 -107 -3 -41 -9 -83 -12 -94 -6 -20 -5 -20 12 -4 13
13 20 40 24 100 4 46 12 96 18 111 17 40 15 47 -11 47 -27 0 -57 -28 -57 -53
0 -9 -4 -17 -10 -17 -14 0 -23 65 -17 114 5 37 3 46 -18 65 -32 27 -53 27 -64
-1z"/>
<path d="M6638 6218 c4 -64 -6 -76 -50 -59 -23 9 -26 7 -24 -15 1 -21 6 -24
39 -24 l38 0 -3 -185 c-3 -179 -2 -185 17 -185 19 0 20 7 20 182 l0 183 38 -2
c31 -2 37 1 37 17 0 15 -8 19 -37 22 l-38 3 1 60 c1 54 -1 60 -20 60 -19 0
-21 -5 -18 -57z"/>
<path d="M4533 6239 c-3 -47 -30 -86 -96 -140 -71 -59 -117 -121 -117 -157 0
-23 3 -21 29 19 15 25 58 67 95 94 73 54 106 106 106 168 0 43 -14 57 -17 16z"/>
<path d="M4188 6218 c-7 -35 12 -88 49 -135 17 -21 38 -51 47 -68 l17 -30 -5
43 c-2 27 -15 56 -33 78 -49 63 -55 73 -62 107 -7 32 -7 32 -13 5z"/>
<path d="M3730 6183 c0 -20 8 -40 21 -52 21 -20 95 -38 106 -27 4 3 -2 6 -13
6 -32 0 -84 38 -99 73 l-14 32 -1 -32z"/>
<path d="M4541 6097 c-16 -34 -42 -63 -85 -95 -83 -64 -116 -99 -138 -150 -22
-49 -18 -69 5 -25 19 34 85 98 150 144 57 40 100 105 95 146 -3 27 -4 26 -27
-20z"/>
<path d="M3840 6075 c-73 -29 -97 -34 -171 -35 -57 0 -113 7 -165 21 -122 33
-175 41 -210 34 -43 -8 -94 -58 -94 -93 0 -14 -10 -36 -22 -49 -14 -15 -22
-37 -23 -61 0 -21 -9 -49 -18 -62 -21 -30 -21 -58 -2 -84 14 -18 15 -17 15 22
0 31 5 45 20 54 13 9 20 24 20 46 0 22 8 40 25 56 14 13 25 34 25 47 0 32 26
68 58 80 20 8 48 3 131 -23 91 -28 121 -33 208 -33 l101 0 105 54 c74 38 112
52 130 49 15 -3 24 -1 21 3 -11 18 -71 7 -154 -26z"/>
<path d="M4174 6069 c5 -30 21 -63 52 -102 25 -32 49 -68 54 -80 8 -21 9 -20
9 5 1 39 -15 75 -59 131 -22 27 -40 56 -40 63 0 7 -5 16 -12 20 -8 5 -9 -5 -4
-37z"/>
<path d="M6234 6087 c47 -29 107 -92 126 -132 27 -56 37 -122 50 -355 9 -157
16 -211 37 -275 13 -44 29 -116 34 -160 9 -84 36 -193 64 -259 24 -58 27 -38
4 34 -11 36 -24 113 -29 172 -6 78 -17 130 -41 195 -27 76 -33 107 -39 228
-13 237 -29 392 -43 427 -24 56 -80 102 -154 128 -24 8 -25 8 -9 -3z"/>
<path d="M5755 6083 c11 -3 31 -15 45 -28 29 -27 79 -39 100 -25 13 8 12 10
-3 10 -10 0 -35 11 -55 25 -23 16 -49 25 -72 24 -21 -1 -27 -3 -15 -6z"/>
<path d="M5985 6064 c-51 -26 -49 -32 6 -18 30 8 76 14 104 15 40 1 45 3 25 9
-42 13 -103 11 -135 -6z"/>
<path d="M5090 6061 c0 -5 10 -11 23 -15 16 -4 27 -17 35 -43 6 -20 10 -39 7
-41 -8 -8 -25 10 -25 28 0 13 -7 18 -20 17 -27 -2 -25 -8 10 -42 26 -25 33
-27 41 -15 14 22 3 92 -17 107 -20 15 -54 17 -54 4z"/>
<path d="M4155 5987 c-9 -34 7 -76 52 -130 19 -22 42 -54 51 -71 l17 -31 3 27
c4 33 -18 77 -65 129 -20 21 -39 54 -43 72 l-7 32 -8 -28z"/>
<path d="M4546 5971 c-15 -21 -56 -60 -92 -86 -75 -56 -128 -114 -144 -158 -9
-28 -4 -24 41 26 28 32 75 73 104 92 59 37 101 87 115 134 5 17 7 31 6 31 -2
0 -15 -17 -30 -39z"/>
<path d="M2010 5976 c0 -11 63 -116 70 -116 7 0 70 105 70 116 0 4 -16 -7 -35
-26 l-35 -34 -35 34 c-19 19 -35 30 -35 26z"/>
<path d="M7341 5944 c13 -22 31 -51 40 -64 l15 -23 24 39 c13 21 31 50 39 63
15 23 14 23 -4 13 -11 -5 -29 -20 -39 -31 -19 -21 -20 -21 -40 -3 -56 48 -61
49 -35 6z"/>
<path d="M1988 5929 l-3 -44 -50 -5 -50 -6 41 -12 c22 -6 54 -15 71 -18 l32
-6 -15 63 c-8 35 -17 65 -19 67 -2 2 -5 -16 -7 -39z"/>
<path d="M2148 5905 c-9 -38 -16 -70 -15 -71 1 0 31 7 67 17 56 15 60 17 30
18 -49 2 -58 10 -62 61 l-3 45 -17 -70z"/>
<path d="M4058 5913 c-32 -109 -168 -307 -264 -385 -99 -81 -177 -72 -262 30
-69 84 -189 202 -203 202 -8 0 14 -28 48 -62 33 -35 84 -97 113 -138 60 -86
79 -104 139 -132 83 -38 169 -3 250 105 102 135 207 353 199 415 -2 16 -8 6
-20 -35z"/>
<path d="M7473 5935 c-31 -106 -34 -102 46 -83 55 12 59 28 6 28 -33 0 -34 1
-37 48 l-3 47 -12 -40z"/>
<path d="M7307 5947 c-4 -10 -7 -30 -7 -43 0 -21 -5 -24 -34 -24 -19 0 -37 -4
-40 -8 -6 -10 102 -37 111 -28 3 3 -1 31 -9 63 -10 42 -16 53 -21 40z"/>
<path d="M3895 5890 c-65 -66 -146 -113 -220 -130 -72 -16 -132 2 -228 67 -71
49 -134 83 -153 83 -4 0 19 -19 52 -41 32 -23 87 -68 120 -100 71 -67 96 -79
165 -79 61 0 126 31 195 94 53 47 140 153 132 161 -2 2 -31 -22 -63 -55z"/>
<path d="M4567 5873 c-18 -32 -86 -100 -137 -133 -50 -33 -100 -81 -116 -112
-23 -44 -17 -42 39 14 28 30 78 68 109 86 60 33 101 78 119 131 15 41 5 51
-14 14z"/>
<path d="M4145 5838 c9 -39 36 -87 66 -114 12 -10 30 -32 40 -49 13 -20 19
-24 19 -13 0 31 -21 72 -66 126 -24 30 -44 61 -44 68 0 8 -5 14 -11 14 -7 0
-8 -12 -4 -32z"/>
<path d="M1880 5856 c0 -3 14 -21 30 -40 l31 -34 -33 -38 -33 -37 62 34 c35
19 63 37 63 41 0 3 -17 17 -37 29 -21 13 -48 29 -60 37 -13 8 -23 12 -23 8z"/>
<path d="M2212 5820 l-64 -37 60 -37 c74 -45 85 -46 43 -2 l-34 35 32 40 c18
23 31 41 29 40 -1 0 -32 -18 -66 -39z"/>
<path d="M5241 5825 c-2 -47 25 -134 58 -195 23 -41 31 -49 31 -32 0 13 -8 37
-17 55 -9 18 -29 70 -44 117 -20 62 -27 77 -28 55z"/>
<path d="M7228 5817 l32 -33 -30 -29 c-44 -42 -37 -50 18 -19 79 46 79 44 20
80 -68 43 -80 43 -40 1z"/>
<path d="M7521 5816 l-54 -34 39 -24 c21 -14 50 -31 63 -38 l24 -12 -22 31
c-12 17 -27 33 -32 37 -6 4 3 20 22 40 42 43 29 43 -40 0z"/>
<path d="M5463 5819 c-4 -12 -17 -42 -30 -67 -18 -33 -27 -72 -34 -146 -5 -56
-14 -121 -19 -146 -5 -25 -9 -144 -8 -265 l1 -220 11 122 11 123 56 57 c31 32
61 66 66 76 7 14 12 0 21 -59 12 -74 49 -160 80 -187 11 -9 10 -3 -3 23 -10
19 -33 83 -50 142 l-32 107 17 53 c10 29 20 78 24 108 l6 55 -30 -78 c-29 -78
-139 -276 -153 -277 -4 0 -5 10 -3 23 3 12 8 76 11 141 3 66 17 170 31 235 34
157 42 201 37 201 -3 0 -7 -10 -10 -21z"/>
<path d="M4086 5815 c39 -108 30 -170 -38 -241 -28 -30 -53 -53 -55 -51 -2 2
10 37 27 77 45 108 37 107 -26 -5 -122 -216 -223 -325 -305 -325 -61 0 -120
49 -219 184 -128 173 -161 208 -228 244 -82 44 -87 40 -15 -12 77 -56 114
-102 203 -251 106 -179 157 -225 248 -225 89 0 164 65 260 226 28 48 52 84 52
81 0 -11 50 17 94 52 l40 32 13 -33 c8 -18 25 -44 38 -58 13 -14 35 -45 49
-70 19 -33 26 -39 26 -24 0 37 -22 87 -62 140 -24 33 -38 61 -38 80 l1 29 41
-45 c22 -25 47 -58 54 -75 10 -23 13 -25 13 -10 1 29 -34 101 -70 146 -17 21
-35 55 -41 76 -7 27 -12 33 -19 22 -5 -8 -9 -9 -9 -4 0 6 -10 21 -21 35 -17
20 -19 21 -13 5z"/>
<path d="M5570 5792 c0 -5 17 -29 38 -52 36 -41 42 -44 102 -48 45 -3 61 -1
56 7 -4 6 -16 11 -27 11 -24 0 -92 34 -136 68 -18 13 -33 20 -33 14z"/>
<path d="M4561 5736 c-25 -39 -75 -85 -156 -139 -55 -38 -115 -107 -115 -134
0 -7 16 5 36 27 20 22 72 63 114 91 77 49 118 95 140 153 15 41 6 43 -19 2z"/>
<path d="M5844 5736 c-39 -17 -58 -42 -23 -30 13 5 47 8 74 7 37 -1 44 0 29 7
-12 5 -25 13 -29 19 -8 14 -13 13 -51 -3z"/>
<path d="M5576 5719 c-4 -15 -3 -53 3 -85 6 -32 11 -75 11 -96 0 -34 32 -219
59 -338 9 -38 10 -30 5 45 -3 50 -11 118 -18 152 -8 36 -10 63 -4 65 5 2 2 20
-7 40 -21 52 -19 65 8 40 24 -22 47 -29 47 -14 0 5 -12 19 -26 33 -31 29 -53
78 -63 139 -7 41 -8 43 -15 19z"/>
<path d="M6196 5707 c-44 -28 -56 -31 -125 -31 -75 0 -75 0 -36 -12 56 -17
141 -17 175 1 30 15 30 15 30 -13 0 -49 -37 -85 -105 -104 -22 -5 -16 -6 23
-3 62 5 66 -10 11 -37 l-34 -18 40 0 40 -1 -24 -19 c-18 -15 -19 -20 -7 -20
20 0 21 -36 1 -70 -9 -17 -14 -54 -14 -110 1 -124 14 -155 21 -50 5 78 45 240
59 240 9 0 29 -74 29 -110 0 -48 37 -222 62 -288 12 -31 39 -86 61 -122 66
-108 97 -164 97 -181 0 -9 -7 -30 -15 -46 -13 -26 -24 -88 -49 -283 -2 -19 -3
6 -1 55 l3 90 -24 -50 c-13 -27 -24 -45 -24 -39 0 5 11 88 25 183 14 95 24
178 23 183 -9 25 -60 -257 -66 -359 -8 -132 -2 -164 18 -96 l13 48 8 -90 c5
-49 14 -121 21 -160 l12 -70 7 120 c14 225 30 410 38 445 l9 35 1 -40 c1 -25
13 -59 31 -90 16 -27 30 -59 30 -70 0 -42 53 -63 65 -26 8 26 -3 65 -31 115
-19 33 -24 37 -24 19 0 -13 9 -37 20 -55 11 -18 20 -41 20 -50 0 -29 -29 -21
-35 10 -4 15 -11 34 -16 42 -27 42 -39 85 -39 139 0 54 -6 71 -70 193 -83 161
-125 282 -140 403 -6 50 -18 119 -27 155 -26 109 -41 224 -32 242 20 37 9 36
-55 -5z"/>
<path d="M1945 5712 l-60 -17 47 -3 c50 -3 53 -6 60 -72 2 -16 9 -1 19 43 18
75 22 73 -66 49z"/>
<path d="M2130 5726 c0 -4 8 -37 18 -74 l17 -67 5 50 5 50 50 5 50 5 -60 14
c-33 7 -66 16 -72 18 -7 3 -13 2 -13 -1z"/>
<path d="M7255 5712 l-60 -17 53 -3 52 -3 1 -52 1 -52 13 40 c36 115 37 113
-60 87z"/>
<path d="M7451 5714 c0 -11 6 -41 13 -69 l12 -50 10 45 c9 44 10 45 54 50 l45
5 -55 14 c-30 8 -61 16 -67 18 -8 3 -13 -3 -12 -13z"/>
<path d="M7356 5649 c-20 -34 -35 -63 -33 -65 2 -2 16 10 32 26 16 17 33 30
39 30 5 0 26 -15 45 -32 l34 -33 -28 50 c-53 94 -48 93 -89 24z"/>
<path d="M2067 5693 c-2 -5 -17 -30 -33 -58 l-28 -50 38 29 38 28 29 -28 c16
-15 31 -26 33 -23 7 6 -54 109 -64 109 -5 0 -11 -3 -13 -7z"/>
<path d="M3190 5663 c0 -48 -37 -299 -60 -408 -16 -77 -41 -202 -55 -278 -32
-173 -51 -224 -117 -311 -49 -65 -52 -72 -54 -136 -1 -37 -7 -86 -14 -109 -12
-46 -8 -61 19 -61 25 0 37 16 51 70 21 80 72 166 91 154 14 -8 10 -47 -6 -68
-8 -11 -15 -33 -15 -48 0 -23 -7 -32 -35 -45 -19 -9 -35 -23 -35 -30 0 -17 3
-17 45 8 25 15 39 19 47 11 7 -7 1 -15 -20 -26 -47 -24 -140 -114 -181 -175
-123 -182 -176 -374 -175 -636 2 -245 49 -422 156 -581 94 -141 249 -244 403
-269 32 -5 26 -1 -26 18 -190 69 -317 183 -404 362 -84 173 -116 362 -96 579
35 397 183 640 455 743 53 20 56 22 21 17 -22 -4 -55 -13 -74 -20 -40 -17 -41
-17 -41 -4 0 14 42 29 110 40 l55 9 -67 -4 c-38 -2 -68 -3 -68 -1 0 2 14 33
30 70 27 58 30 76 29 149 -2 79 0 87 51 202 80 183 114 337 134 615 7 87 -9
19 -39 -167 -29 -184 -69 -330 -123 -448 -32 -71 -37 -92 -42 -190 -6 -104 -9
-115 -47 -190 -30 -57 -43 -75 -48 -63 -3 9 3 35 15 58 24 48 23 88 -3 104
-27 16 -70 -40 -109 -141 -17 -46 -35 -83 -40 -83 -12 0 -10 6 17 94 26 84 27
106 1 59 -20 -36 -20 -27 -1 27 8 23 28 58 45 77 59 67 86 138 119 318 17 94
42 213 55 265 14 52 29 129 35 170 11 80 22 280 15 280 -2 0 -4 -3 -4 -7z"/>
<path d="M4567 5623 c-9 -26 -71 -82 -158 -144 -61 -42 -129 -125 -129 -155 0
-7 21 10 47 37 26 28 81 74 122 102 78 54 137 128 129 164 -4 16 -5 16 -11 -4z"/>
<path d="M5347 5568 c-27 -21 -45 -78 -56 -183 -7 -55 -21 -153 -32 -219 -11
-65 -18 -120 -16 -122 7 -7 67 248 82 349 8 54 24 118 34 143 20 45 17 53 -12
32z"/>
<path d="M5860 5576 c0 -2 17 -21 38 -43 20 -22 48 -58 62 -82 26 -44 74 -81
106 -81 14 0 9 9 -22 43 -23 23 -58 64 -79 90 -38 48 -105 94 -105 73z"/>
<path d="M4121 5515 c-1 -50 16 -94 58 -149 22 -28 47 -67 56 -86 l16 -35 -4
47 c-3 36 -15 62 -51 112 -26 37 -53 83 -61 104 l-14 37 0 -30z"/>
<path d="M5737 5519 c-25 -15 -47 -63 -46 -101 0 -32 1 -32 14 12 9 27 27 56
47 73 31 26 22 37 -15 16z"/>
<path d="M5841 5466 c-13 -53 -14 -185 -2 -205 5 -8 10 38 13 115 3 71 4 130
3 132 -1 1 -8 -17 -14 -42z"/>
<path d="M4549 5472 c-9 -16 -57 -59 -107 -96 -88 -65 -136 -121 -161 -188
-15 -39 -8 -35 24 14 36 53 65 81 147 133 67 44 123 116 116 150 -2 10 -8 6
-19 -13z"/>
<path d="M3347 5307 c-134 -775 -169 -1560 -102 -2292 8 -88 16 -177 17 -197
4 -47 18 -35 47 38 53 137 54 158 55 884 1 690 4 747 51 1350 24 299 15 290
-24 -25 -59 -464 -73 -749 -72 -1456 1 -611 -2 -689 -37 -779 -16 -42 -25 232
-25 765 0 616 15 870 94 1584 16 150 28 275 26 277 -2 2 -15 -65 -30 -149z"/>
<path d="M6691 5441 c0 -7 -26 -66 -57 -130 -54 -111 -95 -231 -93 -275 0 -12
11 11 23 50 13 39 37 95 54 125 36 64 85 204 79 227 -3 11 -5 12 -6 3z"/>
<path d="M4031 5426 c-1 -5 8 -61 18 -125 11 -64 25 -160 31 -214 6 -61 24
-140 46 -209 38 -113 38 -118 14 -232 -12 -59 0 -112 35 -154 24 -28 24 -29 4
-45 -10 -9 -19 -24 -19 -33 0 -25 19 -54 36 -54 14 0 14 2 0 16 -19 18 -20 28
-5 56 11 20 12 20 34 -8 20 -25 25 -27 39 -15 29 24 18 66 -30 124 -31 37 -30
23 1 -28 25 -42 32 -75 15 -75 -5 0 -10 3 -10 8 0 4 -18 31 -40 61 -35 47 -40
60 -40 107 0 29 5 74 12 99 10 38 9 57 -10 137 -12 51 -42 194 -66 318 -39
197 -63 295 -65 266z"/>
<path d="M4124 5362 c3 -33 16 -72 32 -100 15 -26 41 -72 56 -102 l29 -55 -6
50 c-4 28 -15 64 -26 80 -10 17 -30 53 -42 80 -13 28 -29 61 -36 75 -10 22
-11 18 -7 -28z"/>
<path d="M4500 5310 c-36 -36 -89 -87 -119 -115 -52 -49 -111 -136 -111 -165
0 -8 16 8 35 37 19 28 58 71 86 95 110 91 139 121 160 164 12 25 20 46 18 47
-2 2 -33 -27 -69 -63z"/>
<path d="M3959 5288 c-9 -54 -14 -164 -14 -313 0 -214 3 -243 32 -410 46 -259
78 -520 108 -885 19 -231 30 -709 18 -812 -5 -43 -8 -78 -6 -78 2 0 15 24 28
53 41 89 48 167 42 441 -9 406 -47 739 -174 1506 -11 66 -16 168 -17 337 -1
134 -2 243 -2 243 -1 0 -8 -37 -15 -82z"/>
<path d="M3480 5284 c0 -5 -7 -61 -14 -124 -43 -342 -58 -601 -48 -810 l8
-165 7 140 c4 77 12 246 18 375 6 129 17 314 24 410 8 96 12 176 9 179 -2 2
-4 0 -4 -5z"/>
<path d="M4016 5170 c5 -69 8 -192 8 -275 -1 -148 -1 -149 13 -100 21 68 20
264 -1 390 -9 54 -19 101 -22 105 -3 3 -2 -51 2 -120z"/>
<path d="M4521 5219 c-14 -21 -55 -71 -93 -110 -82 -85 -125 -145 -150 -211
-10 -26 -16 -48 -14 -48 3 0 22 28 42 63 21 34 73 99 115 144 43 45 90 102
104 127 34 57 29 89 -4 35z"/>
<path d="M5490 5223 c0 -48 32 -159 66 -225 33 -66 48 -70 19 -5 -14 29 -36
100 -51 158 -14 57 -27 106 -30 108 -2 2 -4 -14 -4 -36z"/>
<path d="M4131 5204 c-1 -41 6 -65 30 -110 17 -33 40 -79 50 -104 l20 -45 -6
50 c-3 29 -22 84 -45 130 -21 44 -41 91 -43 105 -2 14 -5 2 -6 -26z"/>
<path d="M5436 5213 c-4 -16 -9 -127 -12 -248 -5 -174 -4 -218 6 -208 9 8 14
80 18 247 3 130 3 236 0 236 -3 0 -9 -12 -12 -27z"/>
<path d="M5852 5189 c-17 -27 -6 -38 15 -16 11 11 14 20 7 27 -6 6 -14 2 -22
-11z"/>
<path d="M4473 5040 c-17 -36 -64 -103 -102 -150 -39 -47 -78 -99 -86 -117
-28 -58 -47 -202 -25 -188 6 3 10 21 10 39 0 57 29 121 88 192 69 84 116 161
137 225 25 73 14 73 -22 -1z"/>
<path d="M4141 5040 c-1 -45 6 -70 35 -130 20 -41 40 -88 45 -105 6 -22 8 -15
4 28 -2 40 -14 78 -35 119 -17 33 -35 78 -40 101 l-8 42 -1 -55z"/>
<path d="M6240 5058 c0 -18 -14 -62 -31 -98 -37 -79 -172 -216 -269 -272 -69
-41 -67 -52 3 -17 116 59 254 185 296 271 22 46 29 132 11 143 -6 4 -10 -7
-10 -27z"/>
<path d="M5660 5064 c1 -32 36 -99 65 -122 40 -31 100 -45 176 -40 80 6 150
41 223 111 48 46 48 47 9 18 -22 -17 -72 -46 -110 -64 -56 -26 -79 -32 -133
-31 -89 2 -160 37 -200 101 -20 31 -30 40 -30 27z"/>
<path d="M6633 5028 c-40 -50 -51 -96 -54 -216 -1 -71 2 -126 8 -134 6 -7 13
-26 17 -42 4 -15 10 -26 13 -22 6 6 34 418 28 424 -1 1 -7 -3 -12 -10z"/>
<path d="M5626 4970 c19 -141 138 -229 271 -200 73 17 80 27 15 22 -111 -8
-230 68 -273 174 l-19 49 6 -45z"/>
<path d="M5275 4988 c69 -38 83 -86 39 -137 -29 -35 -18 -43 13 -8 32 35 45
67 39 93 -7 27 -60 64 -91 64 l-20 -1 20 -11z"/>
<path d="M6275 4942 c4 -14 0 -43 -10 -68 -14 -37 -32 -56 -106 -110 -134 -98
-201 -182 -233 -291 -8 -29 -13 -53 -12 -53 2 0 19 30 37 66 44 86 121 169
218 238 43 30 89 69 101 86 30 42 37 108 15 135 -16 20 -16 20 -10 -3z"/>
<path d="M5261 4900 c-1 -19 -4 -52 -7 -72 -5 -31 -2 -41 19 -62 15 -14 37
-26 50 -26 14 0 35 -9 48 -19 l24 -19 -43 -46 c-23 -25 -42 -51 -42 -58 0 -8
8 -4 18 8 9 11 34 33 55 49 36 26 46 55 29 81 -11 17 -48 34 -74 34 -44 0 -59
21 -67 95 -5 39 -9 55 -10 35z"/>
<path d="M5599 4898 c-18 -33 -6 -136 24 -194 21 -42 105 -134 122 -134 3 0
-12 26 -34 58 -48 70 -97 167 -105 208 -4 17 -2 43 3 57 13 32 6 36 -10 5z"/>
<path d="M1825 4851 l-17 -39 -41 14 c-22 8 -42 13 -43 11 -2 -2 19 -20 47
-41 28 -21 55 -34 59 -29 8 9 24 123 17 123 -2 0 -12 -18 -22 -39z"/>
<path d="M1875 4846 c3 -27 5 -57 5 -67 0 -11 5 -19 10 -19 12 0 111 72 106
77 -1 2 -22 -3 -44 -11 l-42 -15 -20 42 -20 42 5 -49z"/>
<path d="M7583 4852 c-18 -47 -24 -49 -77 -27 -20 8 -36 13 -36 11 0 -6 111
-88 115 -84 5 6 23 133 19 137 -2 3 -12 -14 -21 -37z"/>
<path d="M7627 4845 c13 -103 11 -101 72 -56 71 53 71 53 17 35 -26 -9 -49
-15 -50 -13 -2 2 -13 22 -24 44 l-21 40 6 -50z"/>
<path d="M1716 4795 c20 -49 19 -52 -26 -75 -22 -11 -40 -22 -40 -23 0 -4 133
14 138 18 4 4 -76 115 -83 115 -2 0 3 -16 11 -35z"/>
<path d="M1970 4774 c-23 -30 -40 -57 -38 -59 5 -5 133 -23 137 -19 2 2 -15
11 -38 20 -45 18 -48 25 -26 78 8 20 13 36 11 36 -2 0 -23 -25 -46 -56z"/>
<path d="M7460 4818 c0 -3 7 -22 16 -43 8 -20 14 -38 12 -40 -2 -1 -21 -12
-43 -24 l-40 -22 55 6 c96 11 95 10 53 63 -50 64 -53 67 -53 60z"/>
<path d="M7726 4769 c-21 -28 -34 -55 -29 -59 4 -5 35 -11 68 -15 l60 -6 -41
23 -41 23 13 39 c8 22 13 41 11 42 -2 2 -20 -19 -41 -47z"/>
<path d="M6297 4710 c4 -58 7 -143 7 -189 0 -102 15 -76 23 39 3 54 -1 100
-16 165 l-21 90 7 -105z"/>
<path d="M5561 4702 c-16 -56 -7 -94 37 -160 64 -97 158 -174 267 -217 l40
-16 -45 38 c-223 188 -271 247 -280 343 l-6 55 -13 -43z"/>
<path d="M6650 4700 c13 -24 9 -156 -5 -195 -4 -11 3 -5 16 13 40 60 34 169
-12 198 -7 4 -7 -1 1 -16z"/>
<path d="M1688 4657 c47 -24 48 -24 27 -74 -8 -20 -14 -38 -12 -39 2 -2 22 22
45 54 48 65 50 62 -53 75 l-50 6 43 -22z"/>
<path d="M1991 4669 c-30 -5 -56 -11 -59 -13 -2 -3 13 -27 34 -55 21 -28 40
-49 42 -47 2 2 -4 20 -12 40 l-15 36 47 25 c51 26 46 28 -37 14z"/>
<path d="M6175 4614 c-49 -31 -105 -70 -123 -87 -38 -37 -87 -111 -97 -147
l-7 -25 19 26 c51 72 96 117 178 179 80 61 136 110 124 110 -2 0 -44 -25 -94
-56z"/>
<path d="M7442 4651 c51 -24 50 -23 33 -66 -9 -20 -15 -39 -13 -41 2 -2 21 19
42 47 21 28 34 55 29 59 -4 4 -35 10 -68 14 l-60 5 37 -18z"/>
<path d="M7765 4665 c-5 -2 -27 -6 -47 -10 l-38 -6 41 -54 c23 -30 43 -55 45
-55 2 0 -3 19 -12 42 -8 22 -13 42 -12 43 2 2 21 12 43 23 35 18 37 21 15 21
-14 0 -29 -2 -35 -4z"/>
<path d="M4300 4605 c34 -66 23 -138 -29 -204 -31 -39 -31 -39 -31 -167 0
-161 -18 -157 -28 7 l-8 114 -7 -118 c-9 -129 1 -172 38 -172 19 0 20 8 23
144 l3 144 36 50 c32 43 38 60 41 112 4 58 2 65 -27 96 l-31 34 20 -40z"/>
<path d="M1887 4606 c-3 -7 -8 -39 -11 -72 l-6 -59 18 37 c25 51 25 51 67 33
21 -8 40 -14 42 -12 2 3 -21 23 -51 45 -38 29 -56 37 -59 28z"/>
<path d="M6260 4475 c-1 -308 -69 -757 -126 -833 l-26 -34 23 4 c38 5 65 75
103 263 45 219 60 373 54 561 -7 211 -27 239 -28 39z"/>
<path d="M1767 4573 c-55 -41 -56 -51 -2 -28 43 17 42 18 67 -33 l18 -37 -6
60 c-9 89 -8 89 -77 38z"/>
<path d="M7530 4574 c-65 -51 -70 -58 -26 -40 55 23 62 21 80 -25 9 -23 18
-40 20 -38 6 7 -16 139 -23 138 -3 0 -26 -16 -51 -35z"/>
<path d="M7635 4568 c-3 -24 -8 -56 -11 -73 -4 -28 -3 -28 17 10 12 22 23 42
25 44 1 2 25 -4 51 -13 l48 -16 -35 29 c-19 16 -47 37 -62 45 l-26 16 -7 -42z"/>
<path d="M5507 4463 c-93 -220 -117 -320 -116 -473 1 -116 7 -100 29 79 7 63
31 158 75 295 35 110 62 202 60 204 -1 2 -23 -46 -48 -105z"/>
<path d="M3720 4105 c0 -398 10 -806 29 -1165 4 -74 6 151 6 500 -1 349 2 617
6 595 13 -74 47 -789 50 -1095 1 -74 6 32 11 235 10 420 5 665 -17 810 -9 55
-29 201 -45 324 -17 124 -32 227 -35 229 -3 3 -5 -192 -5 -433z"/>
<path d="M6560 4458 c0 -7 -23 -380 -50 -828 -55 -894 -57 -945 -37 -953 37
-14 40 6 59 315 10 167 34 563 54 881 20 318 34 580 32 581 -1 2 -15 6 -30 10
-20 4 -28 2 -28 -6z"/>
<path d="M3177 4383 c-13 -12 -7 -51 9 -57 28 -11 38 -6 18 8 -16 13 -17 18
-6 35 10 17 10 21 -1 21 -8 0 -17 -3 -20 -7z"/>
<path d="M5706 4354 c-53 -52 -186 -304 -161 -304 2 0 25 39 51 88 26 48 69
120 95 160 44 67 51 92 15 56z"/>
<path d="M2818 4292 c-105 -111 -180 -250 -225 -420 -24 -88 -27 -115 -27
-287 -1 -165 2 -202 22 -278 86 -340 296 -566 549 -591 l58 -6 -61 14 c-232
53 -424 272 -500 571 -90 354 9 783 230 994 40 38 43 46 22 54 -9 4 -36 -17
-68 -51z"/>
<path d="M3054 4336 c-9 -24 0 -51 19 -54 16 -3 17 -1 5 18 -11 18 -10 23 6
36 19 14 19 14 -2 14 -13 0 -25 -6 -28 -14z"/>
<path d="M5947 4295 c-16 -96 1 -283 32 -355 10 -22 11 -19 6 20 -2 25 -9 113
-15 195 -13 184 -14 190 -23 140z"/>
<path d="M3163 4295 c-94 -29 -172 -95 -242 -204 -92 -144 -127 -285 -125
-511 1 -133 5 -169 28 -255 33 -127 100 -265 159 -331 43 -47 45 -52 26 -57
-16 -4 -20 -12 -17 -33 2 -15 9 -29 16 -32 11 -3 12 0 3 15 -7 14 -7 23 1 31
17 17 26 15 102 -23 37 -19 80 -35 95 -35 23 1 22 2 -11 14 -162 58 -294 231
-354 462 -28 108 -37 278 -21 407 9 68 9 69 28 48 10 -11 54 -47 98 -80 63
-48 78 -65 74 -81 -4 -14 0 -20 11 -20 9 0 16 5 16 12 0 6 3 8 6 5 4 -3 15 -2
26 4 13 7 18 19 16 37 -2 20 -29 47 -118 115 l-115 89 -13 -28 -12 -29 6 35
c12 69 65 189 114 258 59 84 115 132 201 171 69 32 69 38 2 16z"/>
<path d="M5760 4307 c0 -29 -110 -371 -149 -465 -72 -172 -75 -210 -6 -83 52
97 92 198 110 281 4 19 22 53 40 75 41 51 41 51 71 132 31 83 20 74 -41 -32
-25 -44 -45 -77 -45 -73 0 3 7 40 16 83 9 42 13 79 10 82 -3 4 -6 3 -6 0z"/>
<path d="M2922 4248 c-21 -21 -7 -68 20 -68 5 0 4 9 -2 20 -8 15 -6 24 10 40
18 18 19 20 2 20 -10 0 -23 -5 -30 -12z"/>
<path d="M3126 4227 c-16 -12 -15 -24 17 -227 21 -129 31 -219 26 -224 -5 -6
-9 -14 -9 -18 0 -11 27 -10 34 1 3 5 -1 109 -9 232 -8 123 -15 230 -15 237 0
16 -21 16 -44 -1z"/>
<path d="M2834 4106 c-8 -21 -1 -49 13 -53 7 -3 9 4 6 18 -4 15 0 26 12 35 18
13 18 14 -3 14 -13 0 -25 -6 -28 -14z"/>
<path d="M6036 4049 c-43 -190 -50 -251 -38 -329 10 -72 29 -137 36 -129 2 2
0 54 -5 115 -7 90 -5 140 10 260 10 82 18 150 16 152 -1 2 -10 -30 -19 -69z"/>
<path d="M2956 4089 c-14 -20 -9 -33 70 -191 47 -94 83 -177 80 -184 -3 -9 2
-14 14 -14 24 0 24 3 0 -45 -25 -50 -26 -120 -1 -168 16 -31 16 -37 4 -37 -10
0 -13 -6 -9 -16 5 -14 4 -15 -8 -5 -12 10 -13 17 -4 31 14 22 -4 50 -33 50
-25 0 -24 12 1 28 21 13 27 47 10 57 -6 4 -65 3 -130 0 l-120 -8 0 -28 0 -29
94 0 94 0 7 -31 c8 -35 -1 -47 -95 -125 -51 -41 -60 -54 -60 -81 0 -18 3 -33
8 -33 4 0 50 38 102 84 73 65 97 81 103 70 5 -8 12 -12 17 -9 4 3 -23 -68 -62
-157 -68 -155 -76 -190 -43 -191 6 0 41 72 79 160 58 137 71 160 87 156 22 -6
23 -11 9 -267 -10 -183 -7 -206 26 -206 22 0 20 498 -1 506 -8 4 -22 1 -30 -6
-13 -10 -15 -8 -15 13 0 21 4 24 21 20 21 -6 21 -4 15 58 -9 86 -9 95 1 167 9
63 2 77 -24 51 -9 -9 -11 -7 -7 7 4 17 -169 394 -181 394 -2 0 -11 -10 -19
-21z"/>
<path d="M2764 3936 c-8 -21 -1 -49 13 -53 7 -3 10 3 6 15 -3 13 3 25 18 36
l23 16 -27 0 c-15 0 -30 -6 -33 -14z"/>
<path d="M5376 3814 c-4 -17 -3 -51 3 -75 5 -24 12 -125 15 -224 3 -99 12
-247 21 -330 9 -83 15 -183 12 -223 -5 -66 -11 -84 -58 -165 -28 -51 -64 -105
-79 -122 -17 -18 -30 -47 -34 -73 -6 -38 -4 -44 13 -49 11 -3 22 -11 25 -19
16 -42 135 22 170 92 28 56 43 72 84 91 37 18 67 71 57 101 -11 35 -20 150
-19 242 0 73 8 126 34 230 43 169 46 282 11 373 -13 32 -25 57 -27 54 -2 -2 0
-28 6 -57 16 -83 12 -216 -10 -329 -32 -161 -42 -287 -31 -381 8 -71 7 -87 -7
-109 l-16 -26 22 19 c22 19 22 19 22 -3 0 -35 -28 -79 -59 -95 -33 -17 -81
-71 -81 -90 0 -18 -81 -92 -109 -101 -32 -10 -38 2 -13 28 33 35 26 41 -13 11
-47 -35 -60 -20 -15 17 19 16 29 29 23 29 -20 0 -27 42 -10 52 29 16 117 174
127 228 13 70 13 241 -1 315 -6 33 -13 152 -14 265 -2 133 -7 216 -15 235 -6
17 -15 50 -19 75 -7 45 -7 45 -15 14z"/>
<path d="M5470 3800 c8 -15 7 -27 -5 -50 -17 -33 -7 -40 18 -12 20 22 22 53 5
70 -19 19 -30 14 -18 -8z"/>
<path d="M2011 3775 c8 -21 64 -115 69 -115 5 0 59 91 69 115 2 5 -13 -5 -34
-23 l-37 -34 -36 34 c-19 18 -33 28 -31 23z"/>
<path d="M7342 3742 c56 -94 49 -93 91 -23 20 33 33 61 30 61 -4 0 -21 -14
-38 -30 l-31 -30 -29 30 c-40 41 -51 38 -23 -8z"/>
<path d="M1989 3730 l-4 -45 -50 -5 -50 -6 41 -12 c22 -6 55 -15 73 -18 36 -7
36 -8 6 91 l-12 40 -4 -45z"/>
<path d="M2148 3705 c-9 -38 -16 -70 -15 -71 1 0 31 7 67 16 l65 17 -47 8 -47
7 -3 47 -3 46 -17 -70z"/>
<path d="M2730 3755 c-14 -17 -10 -47 9 -53 9 -3 11 1 7 16 -5 14 0 25 16 36
22 16 22 16 1 16 -11 0 -26 -7 -33 -15z"/>
<path d="M7473 3735 c-31 -106 -33 -103 45 -84 66 16 75 29 20 29 l-47 0 -3
48 -3 47 -12 -40z"/>
<path d="M7307 3747 c-4 -10 -7 -30 -7 -43 0 -22 -4 -24 -47 -24 -28 0 -43 -4
-37 -9 11 -11 115 -33 122 -27 2 3 -2 31 -10 63 -10 42 -16 53 -21 40z"/>
<path d="M1906 3625 l32 -40 -32 -40 -31 -40 50 29 c80 46 82 50 38 77 -21 12
-49 30 -63 38 -23 15 -23 13 6 -24z"/>
<path d="M2212 3621 l-63 -38 62 -37 c34 -20 63 -35 65 -33 2 2 -10 16 -26 32
-17 16 -30 32 -30 37 0 4 14 23 31 43 17 19 29 35 28 35 -2 -1 -32 -18 -67
-39z"/>
<path d="M7200 3652 c0 -5 14 -21 30 -37 l30 -29 -32 -33 c-17 -18 -30 -35
-27 -37 7 -7 114 62 110 71 -6 12 -111 73 -111 65z"/>
<path d="M7521 3616 l-53 -33 38 -23 c22 -13 50 -31 63 -39 23 -15 23 -14 13
4 -5 11 -20 29 -31 39 l-21 20 32 33 c40 42 28 42 -41 -1z"/>
<path d="M5969 3595 c-32 -73 -35 -178 -9 -304 32 -158 35 -216 15 -291 -9
-36 -18 -76 -20 -90 -1 -14 -7 -37 -13 -52 -15 -37 -9 -48 47 -85 36 -23 51
-41 56 -63 10 -47 49 -85 111 -110 68 -28 88 -20 92 34 3 30 -3 44 -29 73 -46
53 -109 196 -109 246 0 23 9 85 21 137 56 262 59 284 59 398 0 63 -2 113 -5
110 -3 -3 -10 -56 -15 -119 -6 -63 -24 -184 -41 -269 -19 -94 -32 -188 -32
-240 -1 -75 2 -93 29 -150 17 -36 48 -86 68 -113 20 -26 36 -52 36 -57 0 -13
-17 -13 -25 0 -3 6 -11 10 -17 10 -6 0 -1 -11 12 -25 32 -34 20 -41 -34 -20
-54 21 -78 45 -105 106 -14 30 -35 55 -61 73 -22 14 -40 30 -40 34 0 5 10 51
21 103 27 116 29 255 6 361 -21 94 -22 215 -3 288 8 30 13 57 10 59 -2 2 -13
-17 -25 -44z"/>
<path d="M2724 3566 c-9 -24 0 -51 19 -54 16 -3 17 -1 5 18 -11 18 -10 23 6
36 19 14 19 14 -2 14 -13 0 -25 -6 -28 -14z"/>
<path d="M1945 3512 l-60 -17 47 -3 c50 -3 53 -6 60 -72 2 -16 9 -1 19 43 18
75 22 73 -66 49z"/>
<path d="M2135 3499 c4 -19 13 -52 20 -74 l13 -40 1 53 1 52 53 1 52 1 -40 13
c-22 7 -55 16 -74 20 l-33 7 7 -33z"/>
<path d="M7267 3515 c-65 -18 -69 -25 -14 -25 l46 0 3 -47 3 -48 12 40 c32
107 34 103 -50 80z"/>
<path d="M7450 3521 c0 -5 5 -32 12 -60 12 -53 28 -52 28 2 0 25 3 27 48 28
l47 1 -40 12 c-70 22 -95 27 -95 17z"/>
<path d="M7357 3451 c-38 -64 -37 -78 3 -36 30 32 37 32 79 -7 l34 -33 -33 60
c-18 33 -36 64 -40 68 -4 4 -23 -19 -43 -52z"/>
<path d="M2041 3450 c-17 -28 -31 -53 -31 -56 0 -3 16 7 35 22 l36 27 22 -20
c44 -40 50 -35 19 18 -17 29 -35 55 -40 57 -5 1 -24 -20 -41 -48z"/>
<path d="M4061 3275 c-1 -104 -6 -255 -11 -334 -8 -136 -11 -146 -35 -170 -39
-40 -159 -42 -330 -6 -170 36 -291 38 -357 8 -49 -22 -65 -40 -27 -30 16 4 19
2 14 -11 -4 -9 -9 -24 -11 -32 -6 -21 19 -102 31 -100 5 1 12 -8 17 -19 16
-44 74 -21 122 48 23 33 52 111 41 111 -2 0 -17 -24 -33 -52 -16 -29 -43 -66
-60 -82 -37 -35 -62 -26 -32 11 30 39 24 51 -10 18 -37 -36 -50 -27 -20 15 30
42 19 49 -14 10 -31 -37 -36 -25 -5 14 20 26 14 37 -9 14 -19 -19 -22 -5 -5
31 9 18 28 37 42 43 35 13 128 3 286 -32 73 -17 143 -30 157 -30 16 0 30 -10
41 -30 34 -57 69 -89 129 -119 71 -36 88 -38 118 -13 20 16 21 22 12 54 -8 30
-82 118 -99 118 -10 0 24 -48 51 -72 22 -20 25 -26 11 -21 -19 6 -19 5 3 -19
36 -40 26 -55 -13 -18 -39 38 -61 34 -25 -5 36 -39 17 -40 -47 -5 -52 30 -143
105 -143 120 0 3 28 7 63 8 67 3 140 31 152 60 12 28 18 622 7 667 -8 31 -10
-3 -11 -150z"/>
<path d="M2746 3394 c-19 -18 -19 -20 -6 -45 6 -10 17 -19 25 -19 13 0 13 3 3
20 -10 16 -10 24 0 40 15 24 0 27 -22 4z"/>
<path d="M2802 3218 c-11 -11 -17 -58 -8 -58 2 0 12 -3 21 -6 15 -6 15 -4 4
14 -11 18 -10 24 5 41 15 17 16 21 5 21 -8 0 -20 -5 -27 -12z"/>
<path d="M2887 3053 c-13 -12 -7 -53 7 -53 9 0 12 7 9 21 -4 12 0 25 8 30 12
7 11 9 -2 9 -9 0 -19 -3 -22 -7z"/>
<path d="M5715 2893 c-78 -5 -95 -11 -95 -33 0 -19 5 -19 143 -13 78 3 143 6
144 7 0 1 3 10 5 21 3 18 -3 20 -72 21 -41 0 -97 -1 -125 -3z"/>
<path d="M6150 2868 c0 -27 18 -35 125 -56 61 -12 120 -25 133 -28 18 -5 22
-2 22 15 0 23 -45 39 -185 66 -97 18 -95 18 -95 3z"/>
<path d="M3124 2835 c-8 -19 2 -45 16 -45 7 0 9 8 5 19 -4 13 0 23 12 30 16 9
16 10 -5 11 -12 0 -25 -7 -28 -15z"/>
<path d="M5215 2782 c-144 -59 -274 -155 -316 -233 -7 -13 18 4 55 38 70 64
194 133 306 170 50 16 79 36 80 56 0 14 -36 5 -125 -31z"/>
<path d="M4156 2785 c-4 -10 2 -19 17 -24 104 -41 140 -57 194 -87 35 -19 91
-61 125 -92 37 -34 56 -48 49 -33 -40 75 -172 174 -299 226 -72 29 -78 30 -86
10z"/>
<path d="M2814 2740 c-80 -43 -148 -95 -188 -143 -53 -67 -53 -76 0 -26 78 73
177 133 289 173 16 6 17 9 5 16 -24 16 -45 12 -106 -20z"/>
<path d="M6550 2753 c1 -12 29 -32 90 -61 58 -28 111 -64 156 -105 58 -53 65
-57 48 -28 -27 48 -107 116 -194 167 -82 48 -100 53 -100 27z"/>
<path d="M4308 2268 c-2 -14 -9 -22 -18 -20 -46 11 -179 3 -218 -13 -117 -48
-166 -187 -101 -291 35 -57 99 -87 193 -92 91 -4 169 14 174 40 3 14 -1 15
-35 2 -95 -33 -210 1 -261 79 -35 52 -38 141 -6 183 35 47 70 67 126 71 72 5
132 -27 136 -75 4 -37 22 -44 22 -8 0 12 3 51 6 85 5 41 3 61 -4 61 -6 0 -12
-10 -14 -22z"/>
<path d="M4742 2269 c-10 -25 -12 -26 -67 -18 -180 24 -319 -80 -302 -226 11
-101 90 -165 212 -173 87 -5 171 12 186 39 5 10 8 19 7 19 -2 0 -21 -7 -43
-15 -64 -23 -125 -19 -186 13 -43 23 -59 38 -82 82 -45 85 -29 158 46 214 69
51 208 18 215 -52 6 -57 20 -34 27 42 8 84 3 115 -13 75z"/>
<path d="M3460 2240 c0 -5 12 -10 26 -10 25 0 26 -2 21 -37 -4 -21 -21 -100
-38 -176 -29 -123 -35 -138 -56 -143 -44 -11 -23 -19 52 -19 76 0 96 8 50 19
-19 5 -25 13 -25 34 0 27 37 252 42 257 2 2 30 -68 63 -155 32 -87 62 -157 65
-155 3 2 35 74 70 159 35 85 65 154 67 152 3 -3 53 -263 53 -277 0 -4 -13 -10
-30 -14 -57 -13 -30 -20 62 -17 85 3 91 5 67 17 -22 12 -28 28 -52 142 -43
206 -43 213 -18 213 11 0 21 5 21 10 0 6 -32 10 -75 10 -43 0 -75 -4 -75 -10
0 -5 7 -10 15 -10 8 0 15 -5 15 -11 0 -13 -89 -232 -99 -242 -7 -7 -92 216
-91 241 0 6 7 12 15 12 8 0 15 5 15 10 0 6 -33 10 -80 10 -47 0 -80 -4 -80
-10z"/>
<path d="M4790 2241 c0 -5 8 -11 19 -14 25 -6 144 -164 135 -180 -32 -54 -131
-168 -150 -173 -47 -12 -23 -19 53 -15 57 2 72 5 56 12 -13 4 -23 11 -23 15 0
10 84 144 90 144 3 -1 21 -21 40 -46 19 -24 61 -70 93 -102 53 -52 59 -55 71
-39 10 13 29 17 82 18 54 0 64 2 45 10 -16 6 -21 14 -16 27 9 23 79 132 85
132 3 0 18 -18 34 -39 50 -69 155 -166 166 -155 7 7 -18 49 -74 129 l-84 119
38 46 c65 78 89 100 105 100 8 0 15 5 15 10 0 6 -28 10 -65 10 -37 0 -65 -4
-65 -10 0 -5 7 -10 15 -10 8 0 15 -3 15 -8 0 -9 -69 -112 -75 -112 -6 0 -75
103 -75 112 0 5 9 8 20 8 11 0 20 5 20 10 0 6 -35 10 -85 10 -79 0 -111 -11
-66 -23 27 -7 143 -165 134 -182 -29 -50 -132 -167 -152 -172 -27 -7 -23 -11
-123 132 l-56 81 56 67 c32 36 67 69 80 73 42 12 22 24 -43 24 -37 0 -65 -4
-65 -10 0 -5 7 -10 15 -10 8 0 15 -3 15 -8 0 -17 -73 -113 -80 -106 -19 22
-70 98 -70 106 0 4 9 8 20 8 11 0 20 5 20 10 0 6 -35 10 -85 10 -47 0 -85 -4
-85 -9z"/>
<path d="M5600 2241 c0 -5 12 -11 28 -13 l27 -3 3 -171 2 -171 -32 -10 c-28
-9 -17 -11 67 -11 84 0 95 2 67 11 l-32 10 2 171 3 171 28 3 c15 2 27 8 27 13
0 5 -43 9 -95 9 -52 0 -95 -4 -95 -9z"/>
<path d="M5840 2240 c0 -5 14 -10 30 -10 l30 0 0 -174 0 -174 -30 -7 c-58 -13
-29 -20 67 -16 84 3 93 5 65 14 l-32 10 2 171 3 171 28 3 c15 2 27 8 27 13 0
5 -43 9 -95 9 -57 0 -95 -4 -95 -10z"/>
<path d="M1574 7734 c-159 -173 -389 -477 -449 -594 l-18 -34 38 -33 c21 -18
47 -33 57 -33 16 0 17 5 12 40 -10 62 31 142 142 279 44 53 61 68 75 63 19 -7
457 -361 482 -390 8 -9 17 -26 18 -36 7 -38 29 -27 52 26 13 29 31 59 40 67
22 18 22 41 -1 41 -10 0 -38 10 -63 23 -48 24 -435 331 -442 351 -9 22 22 70
89 144 l66 72 61 0 61 0 -37 38 c-20 20 -50 45 -66 55 l-29 17 -88 -96z"/>
<path d="M8103 7417 c-21 -46 -217 -201 -438 -347 -60 -40 -120 -76 -132 -81
-31 -11 -29 -26 7 -59 17 -16 47 -52 67 -82 102 -150 163 -196 286 -219 121
-22 246 26 344 135 71 79 96 142 101 256 6 139 -3 161 -119 300 -54 66 -101
120 -103 120 -1 0 -8 -10 -13 -23z m136 -197 c66 -124 50 -238 -50 -345 -65
-69 -128 -107 -215 -130 -71 -19 -123 -13 -184 23 -66 38 -140 111 -140 138 0
18 41 52 218 175 119 84 235 163 257 176 63 36 78 32 114 -37z"/>
<path d="M890 6761 c-7 -17 -34 -53 -61 -81 -27 -28 -49 -55 -49 -61 0 -14 28
-11 56 7 37 25 105 13 242 -42 174 -69 318 -146 401 -215 l75 -61 12 49 c8 32
22 56 43 74 17 14 31 29 31 32 0 4 -18 7 -40 7 -28 0 -107 29 -272 101 -259
112 -349 159 -377 195 -25 32 -46 30 -61 -5z"/>
<path d="M8559 6594 c-94 -71 -449 -225 -577 -251 -42 -8 -78 -17 -80 -18 -3
-2 57 -86 74 -104 2 -3 21 5 42 16 20 12 116 53 212 92 96 38 209 84 250 101
41 17 99 34 127 37 29 3 57 11 62 17 13 16 -38 136 -59 136 -9 0 -32 -12 -51
-26z"/>
<path d="M8710 6108 c-258 -122 -499 -208 -586 -208 -17 0 -33 -3 -36 -6 -7
-6 37 -113 53 -128 5 -6 17 -2 31 10 29 26 31 26 360 150 153 57 287 104 299
104 19 0 21 4 14 36 -10 55 -23 84 -37 83 -7 0 -51 -19 -98 -41z"/>
<path d="M557 6063 c-4 -6 -18 -45 -32 -89 -35 -107 -43 -235 -18 -284 27 -52
76 -80 138 -80 73 0 130 39 193 132 53 79 127 153 168 168 103 40 203 -36 220
-167 10 -79 -2 -119 -49 -170 -52 -57 -109 -90 -170 -98 -30 -5 -45 -11 -39
-17 11 -11 108 -38 139 -38 26 0 100 96 146 190 29 58 32 74 32 156 0 83 -2
94 -30 139 -36 59 -102 112 -151 121 -49 9 -159 -19 -209 -54 -22 -15 -59 -57
-82 -92 -77 -118 -104 -151 -138 -167 -46 -22 -97 -11 -131 30 -24 28 -26 37
-21 93 8 107 47 157 151 194 24 9 28 13 16 20 -24 13 -127 23 -133 13z"/>
<path d="M8975 5279 c-22 -13 -99 -27 -274 -49 -260 -32 -360 -37 -378 -19 -7
7 -19 9 -29 5 -14 -6 -16 -16 -10 -74 4 -37 11 -71 15 -75 5 -5 19 -2 32 7 36
23 100 30 122 14 11 -9 24 -41 33 -82 31 -149 97 -219 222 -238 140 -22 235
26 299 149 l30 58 -12 157 c-6 87 -13 159 -16 161 -2 2 -18 -4 -34 -14z m19
-154 c3 -8 3 -44 -1 -81 -11 -116 -67 -165 -198 -172 -64 -3 -74 -1 -116 26
-56 36 -89 97 -89 165 0 55 -4 53 145 66 171 14 252 13 259 -4z"/>
<path d="M1110 5102 c-44 -104 -199 -232 -282 -232 -35 0 -38 2 -38 28 -1 47
-36 109 -78 137 -76 50 -228 55 -298 9 -14 -10 -35 -35 -47 -58 -21 -38 -22
-57 -25 -273 -3 -224 -3 -233 16 -233 10 0 27 9 37 20 17 19 31 20 319 20 166
-1 321 -5 346 -11 25 -5 59 -12 76 -15 l30 -6 0 86 c-1 56 -5 86 -12 86 -6 0
-32 -9 -57 -20 -39 -18 -63 -20 -159 -18 l-113 3 -9 48 c-11 63 5 85 80 115
80 32 194 110 217 149 16 28 37 130 41 197 2 40 -20 23 -44 -32z m-464 -187
c67 -40 94 -94 94 -191 0 -47 -5 -85 -11 -91 -17 -17 -285 -5 -323 14 l-28 15
4 89 c5 98 17 125 78 167 47 32 129 31 186 -3z"/>
<path d="M8327 4533 c-3 -5 -7 -28 -11 -53 -9 -64 16 -110 70 -130 76 -28 87
-48 59 -114 -14 -33 -19 -36 -55 -36 -52 0 -51 -14 1 -29 l42 -13 -7 -45 c-11
-80 -36 -90 -121 -48 -27 13 -49 23 -50 22 0 -1 -8 -31 -17 -67 -21 -80 -16
-85 85 -95 164 -15 396 -66 550 -120 40 -14 79 -28 88 -31 20 -7 29 21 29 86
0 26 4 50 9 55 16 17 31 126 31 229 0 111 -17 166 -68 219 -57 60 -116 73
-228 52 -114 -22 -258 -20 -311 4 -43 20 -73 62 -73 101 0 19 -14 28 -23 13z
m570 -241 c30 -16 52 -38 73 -75 38 -66 39 -122 4 -197 -34 -73 -60 -100 -98
-100 -81 0 -362 66 -394 92 -9 8 -11 24 -7 52 9 53 30 86 55 86 24 0 27 15 5
24 -29 11 -38 49 -22 88 14 34 19 37 69 42 29 3 69 8 88 10 83 9 185 -1 227
-22z"/>
<path d="M479 4007 c-101 -68 -124 -227 -52 -358 67 -124 272 -219 440 -205
173 16 302 86 358 195 33 67 38 115 21 211 -9 47 -16 107 -16 134 l0 48 -32
-6 c-18 -4 -54 -9 -80 -12 -27 -4 -48 -8 -48 -10 0 -1 13 -16 29 -32 34 -34
51 -83 57 -172 4 -55 1 -71 -18 -105 -13 -22 -44 -52 -70 -68 -62 -39 -93 -32
-118 26 -42 95 -50 250 -14 264 8 3 14 12 14 20 0 12 -14 14 -87 8 -109 -9
-127 -17 -86 -38 45 -24 52 -37 73 -146 36 -185 30 -197 -99 -189 -171 10
-291 121 -291 269 0 73 13 107 51 140 26 21 29 27 16 37 -11 10 -21 7 -48 -11z"/>
<path d="M8102 3558 c-5 -7 -12 -29 -15 -48 -3 -19 -22 -78 -43 -130 -34 -83
-38 -105 -39 -180 0 -71 4 -94 26 -141 52 -110 142 -178 278 -209 65 -15 170
-8 231 16 64 25 165 98 188 136 17 29 102 282 102 305 0 5 -15 7 -32 5 -55 -6
-356 103 -575 209 -57 27 -104 49 -107 49 -2 0 -8 -6 -14 -12z m341 -248 c141
-59 266 -115 277 -125 27 -24 25 -41 -10 -101 -55 -96 -139 -144 -255 -144
-132 0 -283 84 -338 190 -27 52 -29 61 -25 145 6 117 28 162 73 148 11 -3 136
-54 278 -113z"/>
<path d="M1474 3135 c-8 -19 -235 -152 -376 -220 -136 -65 -214 -93 -285 -102
-30 -3 -56 -9 -59 -14 -6 -10 42 -125 68 -162 16 -22 23 -25 34 -16 8 6 14 17
14 24 0 29 92 89 281 185 248 125 258 126 336 44 45 -47 53 -62 53 -94 0 -55
-29 -84 -183 -186 -210 -139 -296 -238 -272 -314 16 -51 121 -137 142 -116 4
4 -1 20 -11 37 -21 35 -15 74 19 135 36 62 103 117 212 173 165 85 223 150
223 249 0 63 -36 119 -107 167 -63 42 -70 52 -41 60 13 4 34 14 47 22 l23 15
-35 36 c-19 21 -37 49 -41 65 -7 29 -33 37 -42 12z"/>
<path d="M7761 2700 c-129 -27 -215 -117 -252 -264 -12 -48 -27 -57 -49 -31
-7 9 -23 15 -34 13 -17 -2 -22 -11 -24 -45 -3 -35 1 -44 21 -55 13 -7 59 -41
103 -75 43 -34 126 -99 184 -143 58 -44 149 -121 202 -170 53 -50 103 -90 110
-90 8 0 36 25 62 56 46 53 47 56 26 61 -13 3 -63 25 -112 49 -133 65 -252 149
-365 258 -49 47 -53 54 -53 98 0 97 53 198 118 225 70 29 150 3 316 -101 158
-99 217 -126 276 -126 51 0 130 30 130 50 0 5 -17 12 -37 16 -92 17 -220 85
-312 168 -103 91 -207 127 -310 106z"/>
<path d="M2000 2287 c0 -54 -51 -124 -199 -274 -139 -141 -264 -247 -325 -274
-20 -10 -23 -15 -15 -33 6 -11 25 -32 44 -46 18 -14 45 -44 60 -67 33 -52 55
-56 55 -10 0 17 9 50 19 72 49 108 358 432 455 478 57 27 73 54 37 64 -10 3
-34 26 -52 51 -18 26 -38 50 -43 54 -21 14 -36 8 -36 -15z"/>
<path d="M7235 2111 c-39 -23 -68 -68 -68 -102 0 -16 19 -54 46 -92 l47 -65
-46 -41 c-51 -45 -52 -45 -88 -31 -32 12 -40 0 -24 -35 11 -25 10 -30 -25 -62
-56 -51 -74 -43 -122 49 -22 42 -43 79 -47 83 -3 4 -19 0 -35 -8 -15 -8 -45
-17 -65 -21 -21 -4 -38 -12 -38 -18 0 -6 28 -40 63 -77 150 -159 322 -389 397
-528 21 -41 39 -63 50 -63 20 0 179 138 256 222 78 85 87 112 82 232 -6 149
-42 209 -185 306 -171 117 -217 189 -147 235 50 32 1 48 -51 16z m122 -329
c119 -95 183 -202 183 -304 0 -40 -7 -78 -19 -103 -20 -43 -131 -155 -153
-155 -22 0 -39 17 -149 154 -151 186 -159 198 -159 217 0 9 20 35 46 58 l45
42 35 -20 c42 -25 57 -20 44 15 -6 14 -10 34 -10 44 0 23 56 90 75 90 7 0 35
-17 62 -38z"/>
<path d="M2404 1908 c-4 -7 0 -16 11 -22 48 -27 75 -64 75 -103 0 -36 -7 -44
-101 -128 -116 -103 -161 -163 -189 -254 -23 -74 -26 -177 -6 -225 31 -74 120
-148 219 -182 37 -12 46 -20 44 -36 -1 -16 12 -29 56 -55 31 -19 61 -32 66
-29 4 3 11 29 14 58 7 69 43 155 124 298 94 165 159 258 217 313 l50 47 -32 0
c-36 0 -88 23 -94 42 -7 19 -38 1 -38 -22 0 -54 -267 -524 -312 -549 -36 -21
-77 -1 -149 69 -42 41 -60 68 -69 100 -29 106 20 212 153 334 49 44 97 98 108
118 39 77 15 169 -56 209 -43 24 -82 31 -91 17z"/>
<path d="M6416 1548 c-9 -13 -33 -34 -56 -48 -22 -14 -40 -30 -40 -37 0 -7 29
-51 64 -98 72 -95 235 -361 293 -479 41 -83 40 -92 -10 -130 -38 -28 -143 -34
-202 -11 -71 26 -146 118 -215 260 -70 142 -93 224 -93 323 1 40 -2 71 -6 70
-25 -14 -139 -67 -153 -72 -25 -8 -22 -24 6 -37 34 -16 50 -51 102 -229 26
-85 55 -173 66 -195 56 -111 136 -182 232 -206 55 -14 177 0 244 28 48 20 160
94 191 127 l24 25 -35 39 c-63 69 -195 277 -264 414 -48 96 -114 248 -114 265
0 20 -18 15 -34 -9z"/>
<path d="M3330 1389 c-1 -2 -2 -29 -4 -59 -1 -38 -17 -93 -50 -175 -61 -153
-199 -420 -238 -462 -37 -39 -32 -58 18 -68 21 -4 55 -20 75 -36 20 -16 41
-29 47 -29 5 0 11 40 14 88 5 81 11 101 73 248 37 87 80 184 96 216 27 54 30
56 78 63 97 13 177 -14 224 -76 28 -38 24 -114 -14 -260 -48 -189 -35 -284 52
-384 17 -19 39 -35 49 -35 16 0 14 7 -15 50 -59 87 -58 125 6 382 54 217 51
265 -18 329 -57 54 -90 64 -201 64 -61 0 -102 4 -102 10 0 6 9 25 20 43 27 45
26 49 -21 56 -22 4 -51 14 -65 22 -13 9 -24 15 -24 13z"/>
<path d="M5510 1175 c-25 -14 -53 -25 -62 -25 -23 0 -23 0 12 -70 16 -33 43
-93 60 -134 38 -98 170 -544 170 -579 0 -14 4 -28 8 -31 5 -3 43 4 85 15 83
23 90 32 58 77 -30 43 -111 210 -148 306 -45 117 -101 322 -109 402 -4 37 -11
64 -18 63 -6 0 -31 -11 -56 -24z"/>
<path d="M4545 703 c-40 -38 -73 -70 -73 -73 -1 -3 32 -41 72 -84 l73 -79 79
75 78 76 -68 76 c-37 42 -72 76 -77 76 -6 0 -43 -30 -84 -67z"/>
</g>
</svg>
